<?xml version="1.0" encoding="utf-8" standalone="no"?>
<!DOCTYPE svg PUBLIC "-//W3C//DTD SVG 1.1//EN"
  "http://www.w3.org/Graphics/SVG/1.1/DTD/svg11.dtd">
<!-- Created with matplotlib (https://matplotlib.org/) -->
<svg height="589.79625pt" version="1.1" viewBox="0 0 606.867188 589.79625" width="606.867188pt" xmlns="http://www.w3.org/2000/svg" xmlns:xlink="http://www.w3.org/1999/xlink">
 <defs>
  <style type="text/css">
*{stroke-linecap:butt;stroke-linejoin:round;}
  </style>
 </defs>
 <g id="figure_1">
  <g id="patch_1">
   <path d="M 0 589.79625 
L 606.867188 589.79625 
L 606.867188 0 
L 0 0 
z
" style="fill:none;"/>
  </g>
  <g id="axes_1">
   <g id="patch_2">
    <path d="M 41.667188 182.200478 
L 599.667187 182.200478 
L 599.667187 22.318125 
L 41.667188 22.318125 
z
" style="fill:#ffffff;"/>
   </g>
   <g id="matplotlib.axis_1">
    <g id="xtick_1">
     <g id="line2d_1">
      <defs>
       <path d="M 0 0 
L 0 3.5 
" id="m97d322a272" style="stroke:#000000;stroke-width:0.8;"/>
      </defs>
      <g>
       <use style="stroke:#000000;stroke-width:0.8;" x="123.39446" xlink:href="#m97d322a272" y="182.200478"/>
      </g>
     </g>
     <g id="text_1">
      <!-- −100 -->
      <defs>
       <path d="M 10.59375 35.5 
L 73.1875 35.5 
L 73.1875 27.203125 
L 10.59375 27.203125 
z
" id="DejaVuSans-8722"/>
       <path d="M 12.40625 8.296875 
L 28.515625 8.296875 
L 28.515625 63.921875 
L 10.984375 60.40625 
L 10.984375 69.390625 
L 28.421875 72.90625 
L 38.28125 72.90625 
L 38.28125 8.296875 
L 54.390625 8.296875 
L 54.390625 0 
L 12.40625 0 
z
" id="DejaVuSans-49"/>
       <path d="M 31.78125 66.40625 
Q 24.171875 66.40625 20.328125 58.90625 
Q 16.5 51.421875 16.5 36.375 
Q 16.5 21.390625 20.328125 13.890625 
Q 24.171875 6.390625 31.78125 6.390625 
Q 39.453125 6.390625 43.28125 13.890625 
Q 47.125 21.390625 47.125 36.375 
Q 47.125 51.421875 43.28125 58.90625 
Q 39.453125 66.40625 31.78125 66.40625 
z
M 31.78125 74.21875 
Q 44.046875 74.21875 50.515625 64.515625 
Q 56.984375 54.828125 56.984375 36.375 
Q 56.984375 17.96875 50.515625 8.265625 
Q 44.046875 -1.421875 31.78125 -1.421875 
Q 19.53125 -1.421875 13.0625 8.265625 
Q 6.59375 17.96875 6.59375 36.375 
Q 6.59375 54.828125 13.0625 64.515625 
Q 19.53125 74.21875 31.78125 74.21875 
z
" id="DejaVuSans-48"/>
      </defs>
      <g transform="translate(109.660866 196.798915)scale(0.1 -0.1)">
       <use xlink:href="#DejaVuSans-8722"/>
       <use x="83.789062" xlink:href="#DejaVuSans-49"/>
       <use x="147.412109" xlink:href="#DejaVuSans-48"/>
       <use x="211.035156" xlink:href="#DejaVuSans-48"/>
      </g>
     </g>
    </g>
    <g id="xtick_2">
     <g id="line2d_2">
      <g>
       <use style="stroke:#000000;stroke-width:0.8;" x="224.043811" xlink:href="#m97d322a272" y="182.200478"/>
      </g>
     </g>
     <g id="text_2">
      <!-- −50 -->
      <defs>
       <path d="M 10.796875 72.90625 
L 49.515625 72.90625 
L 49.515625 64.59375 
L 19.828125 64.59375 
L 19.828125 46.734375 
Q 21.96875 47.46875 24.109375 47.828125 
Q 26.265625 48.1875 28.421875 48.1875 
Q 40.625 48.1875 47.75 41.5 
Q 54.890625 34.8125 54.890625 23.390625 
Q 54.890625 11.625 47.5625 5.09375 
Q 40.234375 -1.421875 26.90625 -1.421875 
Q 22.3125 -1.421875 17.546875 -0.640625 
Q 12.796875 0.140625 7.71875 1.703125 
L 7.71875 11.625 
Q 12.109375 9.234375 16.796875 8.0625 
Q 21.484375 6.890625 26.703125 6.890625 
Q 35.15625 6.890625 40.078125 11.328125 
Q 45.015625 15.765625 45.015625 23.390625 
Q 45.015625 31 40.078125 35.4375 
Q 35.15625 39.890625 26.703125 39.890625 
Q 22.75 39.890625 18.8125 39.015625 
Q 14.890625 38.140625 10.796875 36.28125 
z
" id="DejaVuSans-53"/>
      </defs>
      <g transform="translate(213.491467 196.798915)scale(0.1 -0.1)">
       <use xlink:href="#DejaVuSans-8722"/>
       <use x="83.789062" xlink:href="#DejaVuSans-53"/>
       <use x="147.412109" xlink:href="#DejaVuSans-48"/>
      </g>
     </g>
    </g>
    <g id="xtick_3">
     <g id="line2d_3">
      <g>
       <use style="stroke:#000000;stroke-width:0.8;" x="324.693162" xlink:href="#m97d322a272" y="182.200478"/>
      </g>
     </g>
     <g id="text_3">
      <!-- 0 -->
      <g transform="translate(321.511912 196.798915)scale(0.1 -0.1)">
       <use xlink:href="#DejaVuSans-48"/>
      </g>
     </g>
    </g>
    <g id="xtick_4">
     <g id="line2d_4">
      <g>
       <use style="stroke:#000000;stroke-width:0.8;" x="425.342512" xlink:href="#m97d322a272" y="182.200478"/>
      </g>
     </g>
     <g id="text_4">
      <!-- 50 -->
      <g transform="translate(418.980012 196.798915)scale(0.1 -0.1)">
       <use xlink:href="#DejaVuSans-53"/>
       <use x="63.623047" xlink:href="#DejaVuSans-48"/>
      </g>
     </g>
    </g>
    <g id="xtick_5">
     <g id="line2d_5">
      <g>
       <use style="stroke:#000000;stroke-width:0.8;" x="525.991863" xlink:href="#m97d322a272" y="182.200478"/>
      </g>
     </g>
     <g id="text_5">
      <!-- 100 -->
      <g transform="translate(516.448113 196.798915)scale(0.1 -0.1)">
       <use xlink:href="#DejaVuSans-49"/>
       <use x="63.623047" xlink:href="#DejaVuSans-48"/>
       <use x="127.246094" xlink:href="#DejaVuSans-48"/>
      </g>
     </g>
    </g>
   </g>
   <g id="matplotlib.axis_2">
    <g id="ytick_1">
     <g id="line2d_6">
      <defs>
       <path d="M 0 0 
L -3.5 0 
" id="m5791092ec3" style="stroke:#000000;stroke-width:0.8;"/>
      </defs>
      <g>
       <use style="stroke:#000000;stroke-width:0.8;" x="41.667188" xlink:href="#m5791092ec3" y="174.934038"/>
      </g>
     </g>
     <g id="text_6">
      <!-- 0 -->
      <g transform="translate(28.304688 178.733257)scale(0.1 -0.1)">
       <use xlink:href="#DejaVuSans-48"/>
      </g>
     </g>
    </g>
    <g id="ytick_2">
     <g id="line2d_7">
      <g>
       <use style="stroke:#000000;stroke-width:0.8;" x="41.667188" xlink:href="#m5791092ec3" y="149.539864"/>
      </g>
     </g>
     <g id="text_7">
      <!-- 5 -->
      <g transform="translate(28.304688 153.339083)scale(0.1 -0.1)">
       <use xlink:href="#DejaVuSans-53"/>
      </g>
     </g>
    </g>
    <g id="ytick_3">
     <g id="line2d_8">
      <g>
       <use style="stroke:#000000;stroke-width:0.8;" x="41.667188" xlink:href="#m5791092ec3" y="124.14569"/>
      </g>
     </g>
     <g id="text_8">
      <!-- 10 -->
      <g transform="translate(21.942188 127.944909)scale(0.1 -0.1)">
       <use xlink:href="#DejaVuSans-49"/>
       <use x="63.623047" xlink:href="#DejaVuSans-48"/>
      </g>
     </g>
    </g>
    <g id="ytick_4">
     <g id="line2d_9">
      <g>
       <use style="stroke:#000000;stroke-width:0.8;" x="41.667188" xlink:href="#m5791092ec3" y="98.751516"/>
      </g>
     </g>
     <g id="text_9">
      <!-- 15 -->
      <g transform="translate(21.942188 102.550735)scale(0.1 -0.1)">
       <use xlink:href="#DejaVuSans-49"/>
       <use x="63.623047" xlink:href="#DejaVuSans-53"/>
      </g>
     </g>
    </g>
    <g id="ytick_5">
     <g id="line2d_10">
      <g>
       <use style="stroke:#000000;stroke-width:0.8;" x="41.667188" xlink:href="#m5791092ec3" y="73.357342"/>
      </g>
     </g>
     <g id="text_10">
      <!-- 20 -->
      <defs>
       <path d="M 19.1875 8.296875 
L 53.609375 8.296875 
L 53.609375 0 
L 7.328125 0 
L 7.328125 8.296875 
Q 12.9375 14.109375 22.625 23.890625 
Q 32.328125 33.6875 34.8125 36.53125 
Q 39.546875 41.84375 41.421875 45.53125 
Q 43.3125 49.21875 43.3125 52.78125 
Q 43.3125 58.59375 39.234375 62.25 
Q 35.15625 65.921875 28.609375 65.921875 
Q 23.96875 65.921875 18.8125 64.3125 
Q 13.671875 62.703125 7.8125 59.421875 
L 7.8125 69.390625 
Q 13.765625 71.78125 18.9375 73 
Q 24.125 74.21875 28.421875 74.21875 
Q 39.75 74.21875 46.484375 68.546875 
Q 53.21875 62.890625 53.21875 53.421875 
Q 53.21875 48.921875 51.53125 44.890625 
Q 49.859375 40.875 45.40625 35.40625 
Q 44.1875 33.984375 37.640625 27.21875 
Q 31.109375 20.453125 19.1875 8.296875 
z
" id="DejaVuSans-50"/>
      </defs>
      <g transform="translate(21.942188 77.156561)scale(0.1 -0.1)">
       <use xlink:href="#DejaVuSans-50"/>
       <use x="63.623047" xlink:href="#DejaVuSans-48"/>
      </g>
     </g>
    </g>
    <g id="ytick_6">
     <g id="line2d_11">
      <g>
       <use style="stroke:#000000;stroke-width:0.8;" x="41.667188" xlink:href="#m5791092ec3" y="47.963168"/>
      </g>
     </g>
     <g id="text_11">
      <!-- 25 -->
      <g transform="translate(21.942188 51.762387)scale(0.1 -0.1)">
       <use xlink:href="#DejaVuSans-50"/>
       <use x="63.623047" xlink:href="#DejaVuSans-53"/>
      </g>
     </g>
    </g>
    <g id="ytick_7">
     <g id="line2d_12">
      <g>
       <use style="stroke:#000000;stroke-width:0.8;" x="41.667188" xlink:href="#m5791092ec3" y="22.568994"/>
      </g>
     </g>
     <g id="text_12">
      <!-- 30 -->
      <defs>
       <path d="M 40.578125 39.3125 
Q 47.65625 37.796875 51.625 33 
Q 55.609375 28.21875 55.609375 21.1875 
Q 55.609375 10.40625 48.1875 4.484375 
Q 40.765625 -1.421875 27.09375 -1.421875 
Q 22.515625 -1.421875 17.65625 -0.515625 
Q 12.796875 0.390625 7.625 2.203125 
L 7.625 11.71875 
Q 11.71875 9.328125 16.59375 8.109375 
Q 21.484375 6.890625 26.8125 6.890625 
Q 36.078125 6.890625 40.9375 10.546875 
Q 45.796875 14.203125 45.796875 21.1875 
Q 45.796875 27.640625 41.28125 31.265625 
Q 36.765625 34.90625 28.71875 34.90625 
L 20.21875 34.90625 
L 20.21875 43.015625 
L 29.109375 43.015625 
Q 36.375 43.015625 40.234375 45.921875 
Q 44.09375 48.828125 44.09375 54.296875 
Q 44.09375 59.90625 40.109375 62.90625 
Q 36.140625 65.921875 28.71875 65.921875 
Q 24.65625 65.921875 20.015625 65.03125 
Q 15.375 64.15625 9.8125 62.3125 
L 9.8125 71.09375 
Q 15.4375 72.65625 20.34375 73.4375 
Q 25.25 74.21875 29.59375 74.21875 
Q 40.828125 74.21875 47.359375 69.109375 
Q 53.90625 64.015625 53.90625 55.328125 
Q 53.90625 49.265625 50.4375 45.09375 
Q 46.96875 40.921875 40.578125 39.3125 
z
" id="DejaVuSans-51"/>
      </defs>
      <g transform="translate(21.942188 26.368213)scale(0.1 -0.1)">
       <use xlink:href="#DejaVuSans-51"/>
       <use x="63.623047" xlink:href="#DejaVuSans-48"/>
      </g>
     </g>
    </g>
   </g>
   <g id="line2d_13">
    <defs>
     <path d="M 0 3 
C 0.795609 3 1.55874 2.683901 2.12132 2.12132 
C 2.683901 1.55874 3 0.795609 3 0 
C 3 -0.795609 2.683901 -1.55874 2.12132 -2.12132 
C 1.55874 -2.683901 0.795609 -3 0 -3 
C -0.795609 -3 -1.55874 -2.683901 -2.12132 -2.12132 
C -2.683901 -1.55874 -3 -0.795609 -3 0 
C -3 0.795609 -2.683901 1.55874 -2.12132 2.12132 
C -1.55874 2.683901 -0.795609 3 0 3 
z
" id="m7ccb460458" style="stroke:#1f77b4;"/>
    </defs>
    <g clip-path="url(#p1b44ddd00c)">
     <use style="fill:#1f77b4;stroke:#1f77b4;" x="324.693162" xlink:href="#m7ccb460458" y="151.922427"/>
     <use style="fill:#1f77b4;stroke:#1f77b4;" x="332.74511" xlink:href="#m7ccb460458" y="78.154796"/>
     <use style="fill:#1f77b4;stroke:#1f77b4;" x="340.797058" xlink:href="#m7ccb460458" y="29.585505"/>
     <use style="fill:#1f77b4;stroke:#1f77b4;" x="348.849006" xlink:href="#m7ccb460458" y="131.750124"/>
     <use style="fill:#1f77b4;stroke:#1f77b4;" x="356.900954" xlink:href="#m7ccb460458" y="161.739988"/>
     <use style="fill:#1f77b4;stroke:#1f77b4;" x="364.952902" xlink:href="#m7ccb460458" y="167.549275"/>
     <use style="fill:#1f77b4;stroke:#1f77b4;" x="373.00485" xlink:href="#m7ccb460458" y="169.685039"/>
     <use style="fill:#1f77b4;stroke:#1f77b4;" x="381.056798" xlink:href="#m7ccb460458" y="170.624763"/>
     <use style="fill:#1f77b4;stroke:#1f77b4;" x="389.108746" xlink:href="#m7ccb460458" y="170.98993"/>
     <use style="fill:#1f77b4;stroke:#1f77b4;" x="397.160694" xlink:href="#m7ccb460458" y="170.953953"/>
     <use style="fill:#1f77b4;stroke:#1f77b4;" x="405.212642" xlink:href="#m7ccb460458" y="170.482374"/>
     <use style="fill:#1f77b4;stroke:#1f77b4;" x="413.26459" xlink:href="#m7ccb460458" y="169.278894"/>
     <use style="fill:#1f77b4;stroke:#1f77b4;" x="421.316538" xlink:href="#m7ccb460458" y="166.263746"/>
     <use style="fill:#1f77b4;stroke:#1f77b4;" x="429.368486" xlink:href="#m7ccb460458" y="156.0455"/>
     <use style="fill:#1f77b4;stroke:#1f77b4;" x="437.420434" xlink:href="#m7ccb460458" y="53.90006"/>
     <use style="fill:#1f77b4;stroke:#1f77b4;" x="445.472382" xlink:href="#m7ccb460458" y="70.918474"/>
     <use style="fill:#1f77b4;stroke:#1f77b4;" x="453.52433" xlink:href="#m7ccb460458" y="164.643892"/>
     <use style="fill:#1f77b4;stroke:#1f77b4;" x="461.576278" xlink:href="#m7ccb460458" y="171.811299"/>
     <use style="fill:#1f77b4;stroke:#1f77b4;" x="469.628226" xlink:href="#m7ccb460458" y="173.603559"/>
     <use style="fill:#1f77b4;stroke:#1f77b4;" x="477.680175" xlink:href="#m7ccb460458" y="174.262668"/>
     <use style="fill:#1f77b4;stroke:#1f77b4;" x="485.732123" xlink:href="#m7ccb460458" y="174.559469"/>
     <use style="fill:#1f77b4;stroke:#1f77b4;" x="493.784071" xlink:href="#m7ccb460458" y="174.710973"/>
     <use style="fill:#1f77b4;stroke:#1f77b4;" x="501.836019" xlink:href="#m7ccb460458" y="174.795182"/>
     <use style="fill:#1f77b4;stroke:#1f77b4;" x="509.887967" xlink:href="#m7ccb460458" y="174.84494"/>
     <use style="fill:#1f77b4;stroke:#1f77b4;" x="517.939915" xlink:href="#m7ccb460458" y="174.875709"/>
     <use style="fill:#1f77b4;stroke:#1f77b4;" x="525.991863" xlink:href="#m7ccb460458" y="174.895399"/>
     <use style="fill:#1f77b4;stroke:#1f77b4;" x="534.043811" xlink:href="#m7ccb460458" y="174.908326"/>
     <use style="fill:#1f77b4;stroke:#1f77b4;" x="542.095759" xlink:href="#m7ccb460458" y="174.916969"/>
     <use style="fill:#1f77b4;stroke:#1f77b4;" x="550.147707" xlink:href="#m7ccb460458" y="174.922811"/>
     <use style="fill:#1f77b4;stroke:#1f77b4;" x="558.199655" xlink:href="#m7ccb460458" y="174.926772"/>
     <use style="fill:#1f77b4;stroke:#1f77b4;" x="566.251603" xlink:href="#m7ccb460458" y="174.929437"/>
     <use style="fill:#1f77b4;stroke:#1f77b4;" x="574.303551" xlink:href="#m7ccb460458" y="174.931188"/>
     <use style="fill:#1f77b4;stroke:#1f77b4;" x="67.030824" xlink:href="#m7ccb460458" y="174.932279"/>
     <use style="fill:#1f77b4;stroke:#1f77b4;" x="75.082772" xlink:href="#m7ccb460458" y="174.932877"/>
     <use style="fill:#1f77b4;stroke:#1f77b4;" x="83.13472" xlink:href="#m7ccb460458" y="174.933098"/>
     <use style="fill:#1f77b4;stroke:#1f77b4;" x="91.186668" xlink:href="#m7ccb460458" y="174.933018"/>
     <use style="fill:#1f77b4;stroke:#1f77b4;" x="99.238616" xlink:href="#m7ccb460458" y="174.932684"/>
     <use style="fill:#1f77b4;stroke:#1f77b4;" x="107.290564" xlink:href="#m7ccb460458" y="174.932126"/>
     <use style="fill:#1f77b4;stroke:#1f77b4;" x="115.342512" xlink:href="#m7ccb460458" y="174.931358"/>
     <use style="fill:#1f77b4;stroke:#1f77b4;" x="123.39446" xlink:href="#m7ccb460458" y="174.930378"/>
     <use style="fill:#1f77b4;stroke:#1f77b4;" x="131.446408" xlink:href="#m7ccb460458" y="174.929177"/>
     <use style="fill:#1f77b4;stroke:#1f77b4;" x="139.498356" xlink:href="#m7ccb460458" y="174.927729"/>
     <use style="fill:#1f77b4;stroke:#1f77b4;" x="147.550304" xlink:href="#m7ccb460458" y="174.926"/>
     <use style="fill:#1f77b4;stroke:#1f77b4;" x="155.602252" xlink:href="#m7ccb460458" y="174.923937"/>
     <use style="fill:#1f77b4;stroke:#1f77b4;" x="163.6542" xlink:href="#m7ccb460458" y="174.921474"/>
     <use style="fill:#1f77b4;stroke:#1f77b4;" x="171.706149" xlink:href="#m7ccb460458" y="174.918516"/>
     <use style="fill:#1f77b4;stroke:#1f77b4;" x="179.758097" xlink:href="#m7ccb460458" y="174.914942"/>
     <use style="fill:#1f77b4;stroke:#1f77b4;" x="187.810045" xlink:href="#m7ccb460458" y="174.910589"/>
     <use style="fill:#1f77b4;stroke:#1f77b4;" x="195.861993" xlink:href="#m7ccb460458" y="174.905234"/>
     <use style="fill:#1f77b4;stroke:#1f77b4;" x="203.913941" xlink:href="#m7ccb460458" y="174.898576"/>
     <use style="fill:#1f77b4;stroke:#1f77b4;" x="211.965889" xlink:href="#m7ccb460458" y="174.890198"/>
     <use style="fill:#1f77b4;stroke:#1f77b4;" x="220.017837" xlink:href="#m7ccb460458" y="174.879512"/>
     <use style="fill:#1f77b4;stroke:#1f77b4;" x="228.069785" xlink:href="#m7ccb460458" y="174.865671"/>
     <use style="fill:#1f77b4;stroke:#1f77b4;" x="236.121733" xlink:href="#m7ccb460458" y="174.847432"/>
     <use style="fill:#1f77b4;stroke:#1f77b4;" x="244.173681" xlink:href="#m7ccb460458" y="174.822916"/>
     <use style="fill:#1f77b4;stroke:#1f77b4;" x="252.225629" xlink:href="#m7ccb460458" y="174.789195"/>
     <use style="fill:#1f77b4;stroke:#1f77b4;" x="260.277577" xlink:href="#m7ccb460458" y="174.741531"/>
     <use style="fill:#1f77b4;stroke:#1f77b4;" x="268.329525" xlink:href="#m7ccb460458" y="174.671919"/>
     <use style="fill:#1f77b4;stroke:#1f77b4;" x="276.381473" xlink:href="#m7ccb460458" y="174.566068"/>
     <use style="fill:#1f77b4;stroke:#1f77b4;" x="284.433421" xlink:href="#m7ccb460458" y="174.396658"/>
     <use style="fill:#1f77b4;stroke:#1f77b4;" x="292.485369" xlink:href="#m7ccb460458" y="174.106572"/>
     <use style="fill:#1f77b4;stroke:#1f77b4;" x="300.537317" xlink:href="#m7ccb460458" y="173.560777"/>
     <use style="fill:#1f77b4;stroke:#1f77b4;" x="308.589265" xlink:href="#m7ccb460458" y="172.37627"/>
     <use style="fill:#1f77b4;stroke:#1f77b4;" x="316.641213" xlink:href="#m7ccb460458" y="169.074331"/>
    </g>
   </g>
   <g id="patch_3">
    <path d="M 41.667188 182.200478 
L 41.667188 22.318125 
" style="fill:none;stroke:#000000;stroke-linecap:square;stroke-linejoin:miter;stroke-width:0.8;"/>
   </g>
   <g id="patch_4">
    <path d="M 599.667187 182.200478 
L 599.667187 22.318125 
" style="fill:none;stroke:#000000;stroke-linecap:square;stroke-linejoin:miter;stroke-width:0.8;"/>
   </g>
   <g id="patch_5">
    <path d="M 41.667188 182.200478 
L 599.667188 182.200478 
" style="fill:none;stroke:#000000;stroke-linecap:square;stroke-linejoin:miter;stroke-width:0.8;"/>
   </g>
   <g id="patch_6">
    <path d="M 41.667188 22.318125 
L 599.667188 22.318125 
" style="fill:none;stroke:#000000;stroke-linecap:square;stroke-linejoin:miter;stroke-width:0.8;"/>
   </g>
   <g id="text_13">
    <!-- Spectrum -->
    <defs>
     <path d="M 53.515625 70.515625 
L 53.515625 60.890625 
Q 47.90625 63.578125 42.921875 64.890625 
Q 37.9375 66.21875 33.296875 66.21875 
Q 25.25 66.21875 20.875 63.09375 
Q 16.5 59.96875 16.5 54.203125 
Q 16.5 49.359375 19.40625 46.890625 
Q 22.3125 44.4375 30.421875 42.921875 
L 36.375 41.703125 
Q 47.40625 39.59375 52.65625 34.296875 
Q 57.90625 29 57.90625 20.125 
Q 57.90625 9.515625 50.796875 4.046875 
Q 43.703125 -1.421875 29.984375 -1.421875 
Q 24.8125 -1.421875 18.96875 -0.25 
Q 13.140625 0.921875 6.890625 3.21875 
L 6.890625 13.375 
Q 12.890625 10.015625 18.65625 8.296875 
Q 24.421875 6.59375 29.984375 6.59375 
Q 38.421875 6.59375 43.015625 9.90625 
Q 47.609375 13.234375 47.609375 19.390625 
Q 47.609375 24.75 44.3125 27.78125 
Q 41.015625 30.8125 33.5 32.328125 
L 27.484375 33.5 
Q 16.453125 35.6875 11.515625 40.375 
Q 6.59375 45.0625 6.59375 53.421875 
Q 6.59375 63.09375 13.40625 68.65625 
Q 20.21875 74.21875 32.171875 74.21875 
Q 37.3125 74.21875 42.625 73.28125 
Q 47.953125 72.359375 53.515625 70.515625 
z
" id="DejaVuSans-83"/>
     <path d="M 18.109375 8.203125 
L 18.109375 -20.796875 
L 9.078125 -20.796875 
L 9.078125 54.6875 
L 18.109375 54.6875 
L 18.109375 46.390625 
Q 20.953125 51.265625 25.265625 53.625 
Q 29.59375 56 35.59375 56 
Q 45.5625 56 51.78125 48.09375 
Q 58.015625 40.1875 58.015625 27.296875 
Q 58.015625 14.40625 51.78125 6.484375 
Q 45.5625 -1.421875 35.59375 -1.421875 
Q 29.59375 -1.421875 25.265625 0.953125 
Q 20.953125 3.328125 18.109375 8.203125 
z
M 48.6875 27.296875 
Q 48.6875 37.203125 44.609375 42.84375 
Q 40.53125 48.484375 33.40625 48.484375 
Q 26.265625 48.484375 22.1875 42.84375 
Q 18.109375 37.203125 18.109375 27.296875 
Q 18.109375 17.390625 22.1875 11.75 
Q 26.265625 6.109375 33.40625 6.109375 
Q 40.53125 6.109375 44.609375 11.75 
Q 48.6875 17.390625 48.6875 27.296875 
z
" id="DejaVuSans-112"/>
     <path d="M 56.203125 29.59375 
L 56.203125 25.203125 
L 14.890625 25.203125 
Q 15.484375 15.921875 20.484375 11.0625 
Q 25.484375 6.203125 34.421875 6.203125 
Q 39.59375 6.203125 44.453125 7.46875 
Q 49.3125 8.734375 54.109375 11.28125 
L 54.109375 2.78125 
Q 49.265625 0.734375 44.1875 -0.34375 
Q 39.109375 -1.421875 33.890625 -1.421875 
Q 20.796875 -1.421875 13.15625 6.1875 
Q 5.515625 13.8125 5.515625 26.8125 
Q 5.515625 40.234375 12.765625 48.109375 
Q 20.015625 56 32.328125 56 
Q 43.359375 56 49.78125 48.890625 
Q 56.203125 41.796875 56.203125 29.59375 
z
M 47.21875 32.234375 
Q 47.125 39.59375 43.09375 43.984375 
Q 39.0625 48.390625 32.421875 48.390625 
Q 24.90625 48.390625 20.390625 44.140625 
Q 15.875 39.890625 15.1875 32.171875 
z
" id="DejaVuSans-101"/>
     <path d="M 48.78125 52.59375 
L 48.78125 44.1875 
Q 44.96875 46.296875 41.140625 47.34375 
Q 37.3125 48.390625 33.40625 48.390625 
Q 24.65625 48.390625 19.8125 42.84375 
Q 14.984375 37.3125 14.984375 27.296875 
Q 14.984375 17.28125 19.8125 11.734375 
Q 24.65625 6.203125 33.40625 6.203125 
Q 37.3125 6.203125 41.140625 7.25 
Q 44.96875 8.296875 48.78125 10.40625 
L 48.78125 2.09375 
Q 45.015625 0.34375 40.984375 -0.53125 
Q 36.96875 -1.421875 32.421875 -1.421875 
Q 20.0625 -1.421875 12.78125 6.34375 
Q 5.515625 14.109375 5.515625 27.296875 
Q 5.515625 40.671875 12.859375 48.328125 
Q 20.21875 56 33.015625 56 
Q 37.15625 56 41.109375 55.140625 
Q 45.0625 54.296875 48.78125 52.59375 
z
" id="DejaVuSans-99"/>
     <path d="M 18.3125 70.21875 
L 18.3125 54.6875 
L 36.8125 54.6875 
L 36.8125 47.703125 
L 18.3125 47.703125 
L 18.3125 18.015625 
Q 18.3125 11.328125 20.140625 9.421875 
Q 21.96875 7.515625 27.59375 7.515625 
L 36.8125 7.515625 
L 36.8125 0 
L 27.59375 0 
Q 17.1875 0 13.234375 3.875 
Q 9.28125 7.765625 9.28125 18.015625 
L 9.28125 47.703125 
L 2.6875 47.703125 
L 2.6875 54.6875 
L 9.28125 54.6875 
L 9.28125 70.21875 
z
" id="DejaVuSans-116"/>
     <path d="M 41.109375 46.296875 
Q 39.59375 47.171875 37.8125 47.578125 
Q 36.03125 48 33.890625 48 
Q 26.265625 48 22.1875 43.046875 
Q 18.109375 38.09375 18.109375 28.8125 
L 18.109375 0 
L 9.078125 0 
L 9.078125 54.6875 
L 18.109375 54.6875 
L 18.109375 46.1875 
Q 20.953125 51.171875 25.484375 53.578125 
Q 30.03125 56 36.53125 56 
Q 37.453125 56 38.578125 55.875 
Q 39.703125 55.765625 41.0625 55.515625 
z
" id="DejaVuSans-114"/>
     <path d="M 8.5 21.578125 
L 8.5 54.6875 
L 17.484375 54.6875 
L 17.484375 21.921875 
Q 17.484375 14.15625 20.5 10.265625 
Q 23.53125 6.390625 29.59375 6.390625 
Q 36.859375 6.390625 41.078125 11.03125 
Q 45.3125 15.671875 45.3125 23.6875 
L 45.3125 54.6875 
L 54.296875 54.6875 
L 54.296875 0 
L 45.3125 0 
L 45.3125 8.40625 
Q 42.046875 3.421875 37.71875 1 
Q 33.40625 -1.421875 27.6875 -1.421875 
Q 18.265625 -1.421875 13.375 4.4375 
Q 8.5 10.296875 8.5 21.578125 
z
M 31.109375 56 
z
" id="DejaVuSans-117"/>
     <path d="M 52 44.1875 
Q 55.375 50.25 60.0625 53.125 
Q 64.75 56 71.09375 56 
Q 79.640625 56 84.28125 50.015625 
Q 88.921875 44.046875 88.921875 33.015625 
L 88.921875 0 
L 79.890625 0 
L 79.890625 32.71875 
Q 79.890625 40.578125 77.09375 44.375 
Q 74.3125 48.1875 68.609375 48.1875 
Q 61.625 48.1875 57.5625 43.546875 
Q 53.515625 38.921875 53.515625 30.90625 
L 53.515625 0 
L 44.484375 0 
L 44.484375 32.71875 
Q 44.484375 40.625 41.703125 44.40625 
Q 38.921875 48.1875 33.109375 48.1875 
Q 26.21875 48.1875 22.15625 43.53125 
Q 18.109375 38.875 18.109375 30.90625 
L 18.109375 0 
L 9.078125 0 
L 9.078125 54.6875 
L 18.109375 54.6875 
L 18.109375 46.1875 
Q 21.1875 51.21875 25.484375 53.609375 
Q 29.78125 56 35.6875 56 
Q 41.65625 56 45.828125 52.96875 
Q 50 49.953125 52 44.1875 
z
" id="DejaVuSans-109"/>
    </defs>
    <g transform="translate(291.5925 16.318125)scale(0.12 -0.12)">
     <use xlink:href="#DejaVuSans-83"/>
     <use x="63.476562" xlink:href="#DejaVuSans-112"/>
     <use x="126.953125" xlink:href="#DejaVuSans-101"/>
     <use x="188.476562" xlink:href="#DejaVuSans-99"/>
     <use x="243.457031" xlink:href="#DejaVuSans-116"/>
     <use x="282.666016" xlink:href="#DejaVuSans-114"/>
     <use x="323.779297" xlink:href="#DejaVuSans-117"/>
     <use x="387.158203" xlink:href="#DejaVuSans-109"/>
    </g>
   </g>
  </g>
  <g id="axes_2">
   <g id="patch_7">
    <path d="M 41.667188 374.059301 
L 599.667187 374.059301 
L 599.667187 214.176949 
L 41.667188 214.176949 
z
" style="fill:#ffffff;"/>
   </g>
   <g id="matplotlib.axis_3">
    <g id="xtick_6">
     <g id="line2d_14">
      <g>
       <use style="stroke:#000000;stroke-width:0.8;" x="123.39446" xlink:href="#m97d322a272" y="374.059301"/>
      </g>
     </g>
     <g id="text_14">
      <!-- −100 -->
      <g transform="translate(109.660866 388.657739)scale(0.1 -0.1)">
       <use xlink:href="#DejaVuSans-8722"/>
       <use x="83.789062" xlink:href="#DejaVuSans-49"/>
       <use x="147.412109" xlink:href="#DejaVuSans-48"/>
       <use x="211.035156" xlink:href="#DejaVuSans-48"/>
      </g>
     </g>
    </g>
    <g id="xtick_7">
     <g id="line2d_15">
      <g>
       <use style="stroke:#000000;stroke-width:0.8;" x="224.043811" xlink:href="#m97d322a272" y="374.059301"/>
      </g>
     </g>
     <g id="text_15">
      <!-- −50 -->
      <g transform="translate(213.491467 388.657739)scale(0.1 -0.1)">
       <use xlink:href="#DejaVuSans-8722"/>
       <use x="83.789062" xlink:href="#DejaVuSans-53"/>
       <use x="147.412109" xlink:href="#DejaVuSans-48"/>
      </g>
     </g>
    </g>
    <g id="xtick_8">
     <g id="line2d_16">
      <g>
       <use style="stroke:#000000;stroke-width:0.8;" x="324.693162" xlink:href="#m97d322a272" y="374.059301"/>
      </g>
     </g>
     <g id="text_16">
      <!-- 0 -->
      <g transform="translate(321.511912 388.657739)scale(0.1 -0.1)">
       <use xlink:href="#DejaVuSans-48"/>
      </g>
     </g>
    </g>
    <g id="xtick_9">
     <g id="line2d_17">
      <g>
       <use style="stroke:#000000;stroke-width:0.8;" x="425.342512" xlink:href="#m97d322a272" y="374.059301"/>
      </g>
     </g>
     <g id="text_17">
      <!-- 50 -->
      <g transform="translate(418.980012 388.657739)scale(0.1 -0.1)">
       <use xlink:href="#DejaVuSans-53"/>
       <use x="63.623047" xlink:href="#DejaVuSans-48"/>
      </g>
     </g>
    </g>
    <g id="xtick_10">
     <g id="line2d_18">
      <g>
       <use style="stroke:#000000;stroke-width:0.8;" x="525.991863" xlink:href="#m97d322a272" y="374.059301"/>
      </g>
     </g>
     <g id="text_18">
      <!-- 100 -->
      <g transform="translate(516.448113 388.657739)scale(0.1 -0.1)">
       <use xlink:href="#DejaVuSans-49"/>
       <use x="63.623047" xlink:href="#DejaVuSans-48"/>
       <use x="127.246094" xlink:href="#DejaVuSans-48"/>
      </g>
     </g>
    </g>
   </g>
   <g id="matplotlib.axis_4">
    <g id="ytick_8">
     <g id="line2d_19">
      <g>
       <use style="stroke:#000000;stroke-width:0.8;" x="41.667188" xlink:href="#m5791092ec3" y="367.162408"/>
      </g>
     </g>
     <g id="text_19">
      <!-- 0.0 -->
      <defs>
       <path d="M 10.6875 12.40625 
L 21 12.40625 
L 21 0 
L 10.6875 0 
z
" id="DejaVuSans-46"/>
      </defs>
      <g transform="translate(18.764063 370.961627)scale(0.1 -0.1)">
       <use xlink:href="#DejaVuSans-48"/>
       <use x="63.623047" xlink:href="#DejaVuSans-46"/>
       <use x="95.410156" xlink:href="#DejaVuSans-48"/>
      </g>
     </g>
    </g>
    <g id="ytick_9">
     <g id="line2d_20">
      <g>
       <use style="stroke:#000000;stroke-width:0.8;" x="41.667188" xlink:href="#m5791092ec3" y="323.580109"/>
      </g>
     </g>
     <g id="text_20">
      <!-- 0.2 -->
      <g transform="translate(18.764063 327.379327)scale(0.1 -0.1)">
       <use xlink:href="#DejaVuSans-48"/>
       <use x="63.623047" xlink:href="#DejaVuSans-46"/>
       <use x="95.410156" xlink:href="#DejaVuSans-50"/>
      </g>
     </g>
    </g>
    <g id="ytick_10">
     <g id="line2d_21">
      <g>
       <use style="stroke:#000000;stroke-width:0.8;" x="41.667188" xlink:href="#m5791092ec3" y="279.997809"/>
      </g>
     </g>
     <g id="text_21">
      <!-- 0.4 -->
      <defs>
       <path d="M 37.796875 64.3125 
L 12.890625 25.390625 
L 37.796875 25.390625 
z
M 35.203125 72.90625 
L 47.609375 72.90625 
L 47.609375 25.390625 
L 58.015625 25.390625 
L 58.015625 17.1875 
L 47.609375 17.1875 
L 47.609375 0 
L 37.796875 0 
L 37.796875 17.1875 
L 4.890625 17.1875 
L 4.890625 26.703125 
z
" id="DejaVuSans-52"/>
      </defs>
      <g transform="translate(18.764063 283.797028)scale(0.1 -0.1)">
       <use xlink:href="#DejaVuSans-48"/>
       <use x="63.623047" xlink:href="#DejaVuSans-46"/>
       <use x="95.410156" xlink:href="#DejaVuSans-52"/>
      </g>
     </g>
    </g>
    <g id="ytick_11">
     <g id="line2d_22">
      <g>
       <use style="stroke:#000000;stroke-width:0.8;" x="41.667188" xlink:href="#m5791092ec3" y="236.41551"/>
      </g>
     </g>
     <g id="text_22">
      <!-- 0.6 -->
      <defs>
       <path d="M 33.015625 40.375 
Q 26.375 40.375 22.484375 35.828125 
Q 18.609375 31.296875 18.609375 23.390625 
Q 18.609375 15.53125 22.484375 10.953125 
Q 26.375 6.390625 33.015625 6.390625 
Q 39.65625 6.390625 43.53125 10.953125 
Q 47.40625 15.53125 47.40625 23.390625 
Q 47.40625 31.296875 43.53125 35.828125 
Q 39.65625 40.375 33.015625 40.375 
z
M 52.59375 71.296875 
L 52.59375 62.3125 
Q 48.875 64.0625 45.09375 64.984375 
Q 41.3125 65.921875 37.59375 65.921875 
Q 27.828125 65.921875 22.671875 59.328125 
Q 17.53125 52.734375 16.796875 39.40625 
Q 19.671875 43.65625 24.015625 45.921875 
Q 28.375 48.1875 33.59375 48.1875 
Q 44.578125 48.1875 50.953125 41.515625 
Q 57.328125 34.859375 57.328125 23.390625 
Q 57.328125 12.15625 50.6875 5.359375 
Q 44.046875 -1.421875 33.015625 -1.421875 
Q 20.359375 -1.421875 13.671875 8.265625 
Q 6.984375 17.96875 6.984375 36.375 
Q 6.984375 53.65625 15.1875 63.9375 
Q 23.390625 74.21875 37.203125 74.21875 
Q 40.921875 74.21875 44.703125 73.484375 
Q 48.484375 72.75 52.59375 71.296875 
z
" id="DejaVuSans-54"/>
      </defs>
      <g transform="translate(18.764063 240.214729)scale(0.1 -0.1)">
       <use xlink:href="#DejaVuSans-48"/>
       <use x="63.623047" xlink:href="#DejaVuSans-46"/>
       <use x="95.410156" xlink:href="#DejaVuSans-54"/>
      </g>
     </g>
    </g>
   </g>
   <g id="line2d_23">
    <g clip-path="url(#pebeeea00ab)">
     <use style="fill:#1f77b4;stroke:#1f77b4;" x="324.693162" xlink:href="#m7ccb460458" y="309.181952"/>
     <use style="fill:#1f77b4;stroke:#1f77b4;" x="332.74511" xlink:href="#m7ccb460458" y="248.257653"/>
     <use style="fill:#1f77b4;stroke:#1f77b4;" x="340.797058" xlink:href="#m7ccb460458" y="221.444328"/>
     <use style="fill:#1f77b4;stroke:#1f77b4;" x="348.849006" xlink:href="#m7ccb460458" y="287.735234"/>
     <use style="fill:#1f77b4;stroke:#1f77b4;" x="356.900954" xlink:href="#m7ccb460458" y="323.259106"/>
     <use style="fill:#1f77b4;stroke:#1f77b4;" x="364.952902" xlink:href="#m7ccb460458" y="334.31687"/>
     <use style="fill:#1f77b4;stroke:#1f77b4;" x="373.00485" xlink:href="#m7ccb460458" y="339.470917"/>
     <use style="fill:#1f77b4;stroke:#1f77b4;" x="381.056798" xlink:href="#m7ccb460458" y="342.071856"/>
     <use style="fill:#1f77b4;stroke:#1f77b4;" x="389.108746" xlink:href="#m7ccb460458" y="343.158469"/>
     <use style="fill:#1f77b4;stroke:#1f77b4;" x="397.160694" xlink:href="#m7ccb460458" y="343.049239"/>
     <use style="fill:#1f77b4;stroke:#1f77b4;" x="405.212642" xlink:href="#m7ccb460458" y="341.6607"/>
     <use style="fill:#1f77b4;stroke:#1f77b4;" x="413.26459" xlink:href="#m7ccb460458" y="338.41955"/>
     <use style="fill:#1f77b4;stroke:#1f77b4;" x="421.316538" xlink:href="#m7ccb460458" y="331.572655"/>
     <use style="fill:#1f77b4;stroke:#1f77b4;" x="429.368486" xlink:href="#m7ccb460458" y="314.632423"/>
     <use style="fill:#1f77b4;stroke:#1f77b4;" x="437.420434" xlink:href="#m7ccb460458" y="234.189928"/>
     <use style="fill:#1f77b4;stroke:#1f77b4;" x="445.472382" xlink:href="#m7ccb460458" y="243.892442"/>
     <use style="fill:#1f77b4;stroke:#1f77b4;" x="453.52433" xlink:href="#m7ccb460458" y="328.390348"/>
     <use style="fill:#1f77b4;stroke:#1f77b4;" x="461.576278" xlink:href="#m7ccb460458" y="345.803651"/>
     <use style="fill:#1f77b4;stroke:#1f77b4;" x="469.628226" xlink:href="#m7ccb460458" y="353.220827"/>
     <use style="fill:#1f77b4;stroke:#1f77b4;" x="477.680175" xlink:href="#m7ccb460458" y="357.258901"/>
     <use style="fill:#1f77b4;stroke:#1f77b4;" x="485.732123" xlink:href="#m7ccb460458" y="359.765099"/>
     <use style="fill:#1f77b4;stroke:#1f77b4;" x="493.784071" xlink:href="#m7ccb460458" y="361.453891"/>
     <use style="fill:#1f77b4;stroke:#1f77b4;" x="501.836019" xlink:href="#m7ccb460458" y="362.658495"/>
     <use style="fill:#1f77b4;stroke:#1f77b4;" x="509.887967" xlink:href="#m7ccb460458" y="363.554609"/>
     <use style="fill:#1f77b4;stroke:#1f77b4;" x="517.939915" xlink:href="#m7ccb460458" y="364.243293"/>
     <use style="fill:#1f77b4;stroke:#1f77b4;" x="525.991863" xlink:href="#m7ccb460458" y="364.786545"/>
     <use style="fill:#1f77b4;stroke:#1f77b4;" x="534.043811" xlink:href="#m7ccb460458" y="365.224316"/>
     <use style="fill:#1f77b4;stroke:#1f77b4;" x="542.095759" xlink:href="#m7ccb460458" y="365.583301"/>
     <use style="fill:#1f77b4;stroke:#1f77b4;" x="550.147707" xlink:href="#m7ccb460458" y="365.881747"/>
     <use style="fill:#1f77b4;stroke:#1f77b4;" x="558.199655" xlink:href="#m7ccb460458" y="366.132144"/>
     <use style="fill:#1f77b4;stroke:#1f77b4;" x="566.251603" xlink:href="#m7ccb460458" y="366.342601"/>
     <use style="fill:#1f77b4;stroke:#1f77b4;" x="574.303551" xlink:href="#m7ccb460458" y="366.517227"/>
     <use style="fill:#1f77b4;stroke:#1f77b4;" x="67.030824" xlink:href="#m7ccb460458" y="366.65545"/>
     <use style="fill:#1f77b4;stroke:#1f77b4;" x="75.082772" xlink:href="#m7ccb460458" y="366.750634"/>
     <use style="fill:#1f77b4;stroke:#1f77b4;" x="83.13472" xlink:href="#m7ccb460458" y="366.791922"/>
     <use style="fill:#1f77b4;stroke:#1f77b4;" x="91.186668" xlink:href="#m7ccb460458" y="366.776355"/>
     <use style="fill:#1f77b4;stroke:#1f77b4;" x="99.238616" xlink:href="#m7ccb460458" y="366.717703"/>
     <use style="fill:#1f77b4;stroke:#1f77b4;" x="107.290564" xlink:href="#m7ccb460458" y="366.633984"/>
     <use style="fill:#1f77b4;stroke:#1f77b4;" x="115.342512" xlink:href="#m7ccb460458" y="366.536696"/>
     <use style="fill:#1f77b4;stroke:#1f77b4;" x="123.39446" xlink:href="#m7ccb460458" y="366.431251"/>
     <use style="fill:#1f77b4;stroke:#1f77b4;" x="131.446408" xlink:href="#m7ccb460458" y="366.319699"/>
     <use style="fill:#1f77b4;stroke:#1f77b4;" x="139.498356" xlink:href="#m7ccb460458" y="366.202388"/>
     <use style="fill:#1f77b4;stroke:#1f77b4;" x="147.550304" xlink:href="#m7ccb460458" y="366.078757"/>
     <use style="fill:#1f77b4;stroke:#1f77b4;" x="155.602252" xlink:href="#m7ccb460458" y="365.947679"/>
     <use style="fill:#1f77b4;stroke:#1f77b4;" x="163.6542" xlink:href="#m7ccb460458" y="365.807601"/>
     <use style="fill:#1f77b4;stroke:#1f77b4;" x="171.706149" xlink:href="#m7ccb460458" y="365.656568"/>
     <use style="fill:#1f77b4;stroke:#1f77b4;" x="179.758097" xlink:href="#m7ccb460458" y="365.492191"/>
     <use style="fill:#1f77b4;stroke:#1f77b4;" x="187.810045" xlink:href="#m7ccb460458" y="365.311554"/>
     <use style="fill:#1f77b4;stroke:#1f77b4;" x="195.861993" xlink:href="#m7ccb460458" y="365.111081"/>
     <use style="fill:#1f77b4;stroke:#1f77b4;" x="203.913941" xlink:href="#m7ccb460458" y="364.88633"/>
     <use style="fill:#1f77b4;stroke:#1f77b4;" x="211.965889" xlink:href="#m7ccb460458" y="364.63171"/>
     <use style="fill:#1f77b4;stroke:#1f77b4;" x="220.017837" xlink:href="#m7ccb460458" y="364.340069"/>
     <use style="fill:#1f77b4;stroke:#1f77b4;" x="228.069785" xlink:href="#m7ccb460458" y="364.002096"/>
     <use style="fill:#1f77b4;stroke:#1f77b4;" x="236.121733" xlink:href="#m7ccb460458" y="363.605434"/>
     <use style="fill:#1f77b4;stroke:#1f77b4;" x="244.173681" xlink:href="#m7ccb460458" y="363.133317"/>
     <use style="fill:#1f77b4;stroke:#1f77b4;" x="252.225629" xlink:href="#m7ccb460458" y="362.562413"/>
     <use style="fill:#1f77b4;stroke:#1f77b4;" x="260.277577" xlink:href="#m7ccb460458" y="361.859288"/>
     <use style="fill:#1f77b4;stroke:#1f77b4;" x="268.329525" xlink:href="#m7ccb460458" y="360.974308"/>
     <use style="fill:#1f77b4;stroke:#1f77b4;" x="276.381473" xlink:href="#m7ccb460458" y="359.830545"/>
     <use style="fill:#1f77b4;stroke:#1f77b4;" x="284.433421" xlink:href="#m7ccb460458" y="358.302101"/>
     <use style="fill:#1f77b4;stroke:#1f77b4;" x="292.485369" xlink:href="#m7ccb460458" y="356.167716"/>
     <use style="fill:#1f77b4;stroke:#1f77b4;" x="300.537317" xlink:href="#m7ccb460458" y="352.998449"/>
     <use style="fill:#1f77b4;stroke:#1f77b4;" x="308.589265" xlink:href="#m7ccb460458" y="347.832105"/>
     <use style="fill:#1f77b4;stroke:#1f77b4;" x="316.641213" xlink:href="#m7ccb460458" y="337.904314"/>
    </g>
   </g>
   <g id="patch_8">
    <path d="M 41.667188 374.059301 
L 41.667188 214.176949 
" style="fill:none;stroke:#000000;stroke-linecap:square;stroke-linejoin:miter;stroke-width:0.8;"/>
   </g>
   <g id="patch_9">
    <path d="M 599.667187 374.059301 
L 599.667187 214.176949 
" style="fill:none;stroke:#000000;stroke-linecap:square;stroke-linejoin:miter;stroke-width:0.8;"/>
   </g>
   <g id="patch_10">
    <path d="M 41.667188 374.059301 
L 599.667188 374.059301 
" style="fill:none;stroke:#000000;stroke-linecap:square;stroke-linejoin:miter;stroke-width:0.8;"/>
   </g>
   <g id="patch_11">
    <path d="M 41.667188 214.176949 
L 599.667188 214.176949 
" style="fill:none;stroke:#000000;stroke-linecap:square;stroke-linejoin:miter;stroke-width:0.8;"/>
   </g>
   <g id="text_23">
    <!-- Amplitude -->
    <defs>
     <path d="M 34.1875 63.1875 
L 20.796875 26.90625 
L 47.609375 26.90625 
z
M 28.609375 72.90625 
L 39.796875 72.90625 
L 67.578125 0 
L 57.328125 0 
L 50.6875 18.703125 
L 17.828125 18.703125 
L 11.1875 0 
L 0.78125 0 
z
" id="DejaVuSans-65"/>
     <path d="M 9.421875 75.984375 
L 18.40625 75.984375 
L 18.40625 0 
L 9.421875 0 
z
" id="DejaVuSans-108"/>
     <path d="M 9.421875 54.6875 
L 18.40625 54.6875 
L 18.40625 0 
L 9.421875 0 
z
M 9.421875 75.984375 
L 18.40625 75.984375 
L 18.40625 64.59375 
L 9.421875 64.59375 
z
" id="DejaVuSans-105"/>
     <path d="M 45.40625 46.390625 
L 45.40625 75.984375 
L 54.390625 75.984375 
L 54.390625 0 
L 45.40625 0 
L 45.40625 8.203125 
Q 42.578125 3.328125 38.25 0.953125 
Q 33.9375 -1.421875 27.875 -1.421875 
Q 17.96875 -1.421875 11.734375 6.484375 
Q 5.515625 14.40625 5.515625 27.296875 
Q 5.515625 40.1875 11.734375 48.09375 
Q 17.96875 56 27.875 56 
Q 33.9375 56 38.25 53.625 
Q 42.578125 51.265625 45.40625 46.390625 
z
M 14.796875 27.296875 
Q 14.796875 17.390625 18.875 11.75 
Q 22.953125 6.109375 30.078125 6.109375 
Q 37.203125 6.109375 41.296875 11.75 
Q 45.40625 17.390625 45.40625 27.296875 
Q 45.40625 37.203125 41.296875 42.84375 
Q 37.203125 48.484375 30.078125 48.484375 
Q 22.953125 48.484375 18.875 42.84375 
Q 14.796875 37.203125 14.796875 27.296875 
z
" id="DejaVuSans-100"/>
    </defs>
    <g transform="translate(289.92 208.176949)scale(0.12 -0.12)">
     <use xlink:href="#DejaVuSans-65"/>
     <use x="68.408203" xlink:href="#DejaVuSans-109"/>
     <use x="165.820312" xlink:href="#DejaVuSans-112"/>
     <use x="229.296875" xlink:href="#DejaVuSans-108"/>
     <use x="257.080078" xlink:href="#DejaVuSans-105"/>
     <use x="284.863281" xlink:href="#DejaVuSans-116"/>
     <use x="324.072266" xlink:href="#DejaVuSans-117"/>
     <use x="387.451172" xlink:href="#DejaVuSans-100"/>
     <use x="450.927734" xlink:href="#DejaVuSans-101"/>
    </g>
   </g>
  </g>
  <g id="axes_3">
   <g id="patch_12">
    <path d="M 41.667188 565.918125 
L 599.667187 565.918125 
L 599.667187 406.035772 
L 41.667188 406.035772 
z
" style="fill:#ffffff;"/>
   </g>
   <g id="matplotlib.axis_5">
    <g id="xtick_11">
     <g id="line2d_24">
      <g>
       <use style="stroke:#000000;stroke-width:0.8;" x="41.667188" xlink:href="#m97d322a272" y="565.918125"/>
      </g>
     </g>
     <g id="text_24">
      <!-- 0 -->
      <g transform="translate(38.485938 580.516562)scale(0.1 -0.1)">
       <use xlink:href="#DejaVuSans-48"/>
      </g>
     </g>
    </g>
    <g id="xtick_12">
     <g id="line2d_25">
      <g>
       <use style="stroke:#000000;stroke-width:0.8;" x="157.917188" xlink:href="#m97d322a272" y="565.918125"/>
      </g>
     </g>
     <g id="text_25">
      <!-- 5 -->
      <g transform="translate(154.735938 580.516562)scale(0.1 -0.1)">
       <use xlink:href="#DejaVuSans-53"/>
      </g>
     </g>
    </g>
    <g id="xtick_13">
     <g id="line2d_26">
      <g>
       <use style="stroke:#000000;stroke-width:0.8;" x="274.167188" xlink:href="#m97d322a272" y="565.918125"/>
      </g>
     </g>
     <g id="text_26">
      <!-- 10 -->
      <g transform="translate(267.804688 580.516562)scale(0.1 -0.1)">
       <use xlink:href="#DejaVuSans-49"/>
       <use x="63.623047" xlink:href="#DejaVuSans-48"/>
      </g>
     </g>
    </g>
    <g id="xtick_14">
     <g id="line2d_27">
      <g>
       <use style="stroke:#000000;stroke-width:0.8;" x="390.417188" xlink:href="#m97d322a272" y="565.918125"/>
      </g>
     </g>
     <g id="text_27">
      <!-- 15 -->
      <g transform="translate(384.054688 580.516562)scale(0.1 -0.1)">
       <use xlink:href="#DejaVuSans-49"/>
       <use x="63.623047" xlink:href="#DejaVuSans-53"/>
      </g>
     </g>
    </g>
    <g id="xtick_15">
     <g id="line2d_28">
      <g>
       <use style="stroke:#000000;stroke-width:0.8;" x="506.667188" xlink:href="#m97d322a272" y="565.918125"/>
      </g>
     </g>
     <g id="text_28">
      <!-- 20 -->
      <g transform="translate(500.304688 580.516562)scale(0.1 -0.1)">
       <use xlink:href="#DejaVuSans-50"/>
       <use x="63.623047" xlink:href="#DejaVuSans-48"/>
      </g>
     </g>
    </g>
   </g>
   <g id="matplotlib.axis_6">
    <g id="ytick_12">
     <g id="line2d_29">
      <g>
       <use style="stroke:#000000;stroke-width:0.8;" x="41.667188" xlink:href="#m5791092ec3" y="528.175245"/>
      </g>
     </g>
     <g id="text_29">
      <!-- −100 -->
      <g transform="translate(7.2 531.974464)scale(0.1 -0.1)">
       <use xlink:href="#DejaVuSans-8722"/>
       <use x="83.789062" xlink:href="#DejaVuSans-49"/>
       <use x="147.412109" xlink:href="#DejaVuSans-48"/>
       <use x="211.035156" xlink:href="#DejaVuSans-48"/>
      </g>
     </g>
    </g>
    <g id="ytick_13">
     <g id="line2d_30">
      <g>
       <use style="stroke:#000000;stroke-width:0.8;" x="41.667188" xlink:href="#m5791092ec3" y="486.826352"/>
      </g>
     </g>
     <g id="text_30">
      <!-- 0 -->
      <g transform="translate(28.304688 490.625571)scale(0.1 -0.1)">
       <use xlink:href="#DejaVuSans-48"/>
      </g>
     </g>
    </g>
    <g id="ytick_14">
     <g id="line2d_31">
      <g>
       <use style="stroke:#000000;stroke-width:0.8;" x="41.667188" xlink:href="#m5791092ec3" y="445.477459"/>
      </g>
     </g>
     <g id="text_31">
      <!-- 100 -->
      <g transform="translate(15.579688 449.276678)scale(0.1 -0.1)">
       <use xlink:href="#DejaVuSans-49"/>
       <use x="63.623047" xlink:href="#DejaVuSans-48"/>
       <use x="127.246094" xlink:href="#DejaVuSans-48"/>
      </g>
     </g>
    </g>
   </g>
   <g id="line2d_32">
    <g clip-path="url(#p3742cc69c5)">
     <use style="fill:#1f77b4;stroke:#1f77b4;" x="41.667188" xlink:href="#m7ccb460458" y="515.86309"/>
     <use style="fill:#1f77b4;stroke:#1f77b4;" x="134.667188" xlink:href="#m7ccb460458" y="494.39038"/>
     <use style="fill:#1f77b4;stroke:#1f77b4;" x="227.667188" xlink:href="#m7ccb460458" y="468.832214"/>
     <use style="fill:#1f77b4;stroke:#1f77b4;" x="320.667188" xlink:href="#m7ccb460458" y="443.449017"/>
     <use style="fill:#1f77b4;stroke:#1f77b4;" x="413.667188" xlink:href="#m7ccb460458" y="440.295971"/>
     <use style="fill:#1f77b4;stroke:#1f77b4;" x="506.667188" xlink:href="#m7ccb460458" y="438.36306"/>
     <use style="fill:#1f77b4;stroke:#1f77b4;" x="599.667187" xlink:href="#m7ccb460458" y="436.697552"/>
     <use style="fill:#1f77b4;stroke:#1f77b4;" x="692.667187" xlink:href="#m7ccb460458" y="435.119238"/>
     <use style="fill:#1f77b4;stroke:#1f77b4;" x="785.667187" xlink:href="#m7ccb460458" y="433.562514"/>
     <use style="fill:#1f77b4;stroke:#1f77b4;" x="878.667187" xlink:href="#m7ccb460458" y="431.987257"/>
     <use style="fill:#1f77b4;stroke:#1f77b4;" x="971.667187" xlink:href="#m7ccb460458" y="430.35074"/>
     <use style="fill:#1f77b4;stroke:#1f77b4;" x="1064.667187" xlink:href="#m7ccb460458" y="428.579952"/>
     <use style="fill:#1f77b4;stroke:#1f77b4;" x="1157.667187" xlink:href="#m7ccb460458" y="426.494554"/>
     <use style="fill:#1f77b4;stroke:#1f77b4;" x="1250.667187" xlink:href="#m7ccb460458" y="423.393516"/>
     <use style="fill:#1f77b4;stroke:#1f77b4;" x="1343.667187" xlink:href="#m7ccb460458" y="556.492559"/>
     <use style="fill:#1f77b4;stroke:#1f77b4;" x="1436.667187" xlink:href="#m7ccb460458" y="518.213183"/>
     <use style="fill:#1f77b4;stroke:#1f77b4;" x="1529.667187" xlink:href="#m7ccb460458" y="501.879147"/>
     <use style="fill:#1f77b4;stroke:#1f77b4;" x="1622.667187" xlink:href="#m7ccb460458" y="498.68668"/>
     <use style="fill:#1f77b4;stroke:#1f77b4;" x="1715.667187" xlink:href="#m7ccb460458" y="496.519031"/>
     <use style="fill:#1f77b4;stroke:#1f77b4;" x="1808.667187" xlink:href="#m7ccb460458" y="494.648139"/>
     <use style="fill:#1f77b4;stroke:#1f77b4;" x="1901.667187" xlink:href="#m7ccb460458" y="492.887846"/>
     <use style="fill:#1f77b4;stroke:#1f77b4;" x="1994.667187" xlink:href="#m7ccb460458" y="491.163444"/>
     <use style="fill:#1f77b4;stroke:#1f77b4;" x="2087.667188" xlink:href="#m7ccb460458" y="489.43412"/>
     <use style="fill:#1f77b4;stroke:#1f77b4;" x="2180.667188" xlink:href="#m7ccb460458" y="487.670359"/>
     <use style="fill:#1f77b4;stroke:#1f77b4;" x="2273.667188" xlink:href="#m7ccb460458" y="485.844672"/>
     <use style="fill:#1f77b4;stroke:#1f77b4;" x="2366.667188" xlink:href="#m7ccb460458" y="483.92595"/>
     <use style="fill:#1f77b4;stroke:#1f77b4;" x="2459.667188" xlink:href="#m7ccb460458" y="481.874087"/>
     <use style="fill:#1f77b4;stroke:#1f77b4;" x="2552.667188" xlink:href="#m7ccb460458" y="479.632773"/>
     <use style="fill:#1f77b4;stroke:#1f77b4;" x="2645.667188" xlink:href="#m7ccb460458" y="477.117983"/>
     <use style="fill:#1f77b4;stroke:#1f77b4;" x="2738.667188" xlink:href="#m7ccb460458" y="474.198113"/>
     <use style="fill:#1f77b4;stroke:#1f77b4;" x="2831.667188" xlink:href="#m7ccb460458" y="470.659123"/>
     <use style="fill:#1f77b4;stroke:#1f77b4;" x="2924.667188" xlink:href="#m7ccb460458" y="466.148032"/>
     <use style="fill:#1f77b4;stroke:#1f77b4;" x="-1" xlink:href="#m7ccb460458" y="463.136726"/>
    </g>
   </g>
   <g id="patch_13">
    <path d="M 41.667188 565.918125 
L 41.667188 406.035772 
" style="fill:none;stroke:#000000;stroke-linecap:square;stroke-linejoin:miter;stroke-width:0.8;"/>
   </g>
   <g id="patch_14">
    <path d="M 599.667187 565.918125 
L 599.667187 406.035772 
" style="fill:none;stroke:#000000;stroke-linecap:square;stroke-linejoin:miter;stroke-width:0.8;"/>
   </g>
   <g id="patch_15">
    <path d="M 41.667188 565.918125 
L 599.667187 565.918125 
" style="fill:none;stroke:#000000;stroke-linecap:square;stroke-linejoin:miter;stroke-width:0.8;"/>
   </g>
   <g id="patch_16">
    <path d="M 41.667188 406.035772 
L 599.667187 406.035772 
" style="fill:none;stroke:#000000;stroke-linecap:square;stroke-linejoin:miter;stroke-width:0.8;"/>
   </g>
   <g id="text_32">
    <!-- -18.29 -->
    <defs>
     <path d="M 4.890625 31.390625 
L 31.203125 31.390625 
L 31.203125 23.390625 
L 4.890625 23.390625 
z
" id="DejaVuSans-45"/>
     <path d="M 31.78125 34.625 
Q 24.75 34.625 20.71875 30.859375 
Q 16.703125 27.09375 16.703125 20.515625 
Q 16.703125 13.921875 20.71875 10.15625 
Q 24.75 6.390625 31.78125 6.390625 
Q 38.8125 6.390625 42.859375 10.171875 
Q 46.921875 13.96875 46.921875 20.515625 
Q 46.921875 27.09375 42.890625 30.859375 
Q 38.875 34.625 31.78125 34.625 
z
M 21.921875 38.8125 
Q 15.578125 40.375 12.03125 44.71875 
Q 8.5 49.078125 8.5 55.328125 
Q 8.5 64.0625 14.71875 69.140625 
Q 20.953125 74.21875 31.78125 74.21875 
Q 42.671875 74.21875 48.875 69.140625 
Q 55.078125 64.0625 55.078125 55.328125 
Q 55.078125 49.078125 51.53125 44.71875 
Q 48 40.375 41.703125 38.8125 
Q 48.828125 37.15625 52.796875 32.3125 
Q 56.78125 27.484375 56.78125 20.515625 
Q 56.78125 9.90625 50.3125 4.234375 
Q 43.84375 -1.421875 31.78125 -1.421875 
Q 19.734375 -1.421875 13.25 4.234375 
Q 6.78125 9.90625 6.78125 20.515625 
Q 6.78125 27.484375 10.78125 32.3125 
Q 14.796875 37.15625 21.921875 38.8125 
z
M 18.3125 54.390625 
Q 18.3125 48.734375 21.84375 45.5625 
Q 25.390625 42.390625 31.78125 42.390625 
Q 38.140625 42.390625 41.71875 45.5625 
Q 45.3125 48.734375 45.3125 54.390625 
Q 45.3125 60.0625 41.71875 63.234375 
Q 38.140625 66.40625 31.78125 66.40625 
Q 25.390625 66.40625 21.84375 63.234375 
Q 18.3125 60.0625 18.3125 54.390625 
z
" id="DejaVuSans-56"/>
     <path d="M 10.984375 1.515625 
L 10.984375 10.5 
Q 14.703125 8.734375 18.5 7.8125 
Q 22.3125 6.890625 25.984375 6.890625 
Q 35.75 6.890625 40.890625 13.453125 
Q 46.046875 20.015625 46.78125 33.40625 
Q 43.953125 29.203125 39.59375 26.953125 
Q 35.25 24.703125 29.984375 24.703125 
Q 19.046875 24.703125 12.671875 31.3125 
Q 6.296875 37.9375 6.296875 49.421875 
Q 6.296875 60.640625 12.9375 67.421875 
Q 19.578125 74.21875 30.609375 74.21875 
Q 43.265625 74.21875 49.921875 64.515625 
Q 56.59375 54.828125 56.59375 36.375 
Q 56.59375 19.140625 48.40625 8.859375 
Q 40.234375 -1.421875 26.421875 -1.421875 
Q 22.703125 -1.421875 18.890625 -0.6875 
Q 15.09375 0.046875 10.984375 1.515625 
z
M 30.609375 32.421875 
Q 37.25 32.421875 41.125 36.953125 
Q 45.015625 41.5 45.015625 49.421875 
Q 45.015625 57.28125 41.125 61.84375 
Q 37.25 66.40625 30.609375 66.40625 
Q 23.96875 66.40625 20.09375 61.84375 
Q 16.21875 57.28125 16.21875 49.421875 
Q 16.21875 41.5 20.09375 36.953125 
Q 23.96875 32.421875 30.609375 32.421875 
z
" id="DejaVuSans-57"/>
    </defs>
    <g transform="translate(118.549219 492.310692)scale(0.1 -0.1)">
     <use xlink:href="#DejaVuSans-45"/>
     <use x="36.083984" xlink:href="#DejaVuSans-49"/>
     <use x="99.707031" xlink:href="#DejaVuSans-56"/>
     <use x="163.330078" xlink:href="#DejaVuSans-46"/>
     <use x="195.117188" xlink:href="#DejaVuSans-50"/>
     <use x="258.740234" xlink:href="#DejaVuSans-57"/>
    </g>
   </g>
   <g id="text_33">
    <!-- 43.52 -->
    <g transform="translate(213.353125 466.752527)scale(0.1 -0.1)">
     <use xlink:href="#DejaVuSans-52"/>
     <use x="63.623047" xlink:href="#DejaVuSans-51"/>
     <use x="127.246094" xlink:href="#DejaVuSans-46"/>
     <use x="159.033203" xlink:href="#DejaVuSans-53"/>
     <use x="222.65625" xlink:href="#DejaVuSans-50"/>
    </g>
   </g>
   <g id="text_34">
    <!-- 104.91 -->
    <g transform="translate(303.171875 441.36933)scale(0.1 -0.1)">
     <use xlink:href="#DejaVuSans-49"/>
     <use x="63.623047" xlink:href="#DejaVuSans-48"/>
     <use x="127.246094" xlink:href="#DejaVuSans-52"/>
     <use x="190.869141" xlink:href="#DejaVuSans-46"/>
     <use x="222.65625" xlink:href="#DejaVuSans-57"/>
     <use x="286.279297" xlink:href="#DejaVuSans-49"/>
    </g>
   </g>
   <g id="text_35">
    <!-- 112.53 -->
    <g transform="translate(396.171875 438.216284)scale(0.1 -0.1)">
     <use xlink:href="#DejaVuSans-49"/>
     <use x="63.623047" xlink:href="#DejaVuSans-49"/>
     <use x="127.246094" xlink:href="#DejaVuSans-50"/>
     <use x="190.869141" xlink:href="#DejaVuSans-46"/>
     <use x="222.65625" xlink:href="#DejaVuSans-53"/>
     <use x="286.279297" xlink:href="#DejaVuSans-51"/>
    </g>
   </g>
   <g id="text_36">
    <!-- 117.21 -->
    <defs>
     <path d="M 8.203125 72.90625 
L 55.078125 72.90625 
L 55.078125 68.703125 
L 28.609375 0 
L 18.3125 0 
L 43.21875 64.59375 
L 8.203125 64.59375 
z
" id="DejaVuSans-55"/>
    </defs>
    <g transform="translate(489.171875 436.283372)scale(0.1 -0.1)">
     <use xlink:href="#DejaVuSans-49"/>
     <use x="63.623047" xlink:href="#DejaVuSans-49"/>
     <use x="127.246094" xlink:href="#DejaVuSans-55"/>
     <use x="190.869141" xlink:href="#DejaVuSans-46"/>
     <use x="222.65625" xlink:href="#DejaVuSans-50"/>
     <use x="286.279297" xlink:href="#DejaVuSans-49"/>
    </g>
   </g>
   <g id="text_37">
    <!-- Phase -->
    <defs>
     <path d="M 19.671875 64.796875 
L 19.671875 37.40625 
L 32.078125 37.40625 
Q 38.96875 37.40625 42.71875 40.96875 
Q 46.484375 44.53125 46.484375 51.125 
Q 46.484375 57.671875 42.71875 61.234375 
Q 38.96875 64.796875 32.078125 64.796875 
z
M 9.8125 72.90625 
L 32.078125 72.90625 
Q 44.34375 72.90625 50.609375 67.359375 
Q 56.890625 61.8125 56.890625 51.125 
Q 56.890625 40.328125 50.609375 34.8125 
Q 44.34375 29.296875 32.078125 29.296875 
L 19.671875 29.296875 
L 19.671875 0 
L 9.8125 0 
z
" id="DejaVuSans-80"/>
     <path d="M 54.890625 33.015625 
L 54.890625 0 
L 45.90625 0 
L 45.90625 32.71875 
Q 45.90625 40.484375 42.875 44.328125 
Q 39.84375 48.1875 33.796875 48.1875 
Q 26.515625 48.1875 22.3125 43.546875 
Q 18.109375 38.921875 18.109375 30.90625 
L 18.109375 0 
L 9.078125 0 
L 9.078125 75.984375 
L 18.109375 75.984375 
L 18.109375 46.1875 
Q 21.34375 51.125 25.703125 53.5625 
Q 30.078125 56 35.796875 56 
Q 45.21875 56 50.046875 50.171875 
Q 54.890625 44.34375 54.890625 33.015625 
z
" id="DejaVuSans-104"/>
     <path d="M 34.28125 27.484375 
Q 23.390625 27.484375 19.1875 25 
Q 14.984375 22.515625 14.984375 16.5 
Q 14.984375 11.71875 18.140625 8.90625 
Q 21.296875 6.109375 26.703125 6.109375 
Q 34.1875 6.109375 38.703125 11.40625 
Q 43.21875 16.703125 43.21875 25.484375 
L 43.21875 27.484375 
z
M 52.203125 31.203125 
L 52.203125 0 
L 43.21875 0 
L 43.21875 8.296875 
Q 40.140625 3.328125 35.546875 0.953125 
Q 30.953125 -1.421875 24.3125 -1.421875 
Q 15.921875 -1.421875 10.953125 3.296875 
Q 6 8.015625 6 15.921875 
Q 6 25.140625 12.171875 29.828125 
Q 18.359375 34.515625 30.609375 34.515625 
L 43.21875 34.515625 
L 43.21875 35.40625 
Q 43.21875 41.609375 39.140625 45 
Q 35.0625 48.390625 27.6875 48.390625 
Q 23 48.390625 18.546875 47.265625 
Q 14.109375 46.140625 10.015625 43.890625 
L 10.015625 52.203125 
Q 14.9375 54.109375 19.578125 55.046875 
Q 24.21875 56 28.609375 56 
Q 40.484375 56 46.34375 49.84375 
Q 52.203125 43.703125 52.203125 31.203125 
z
" id="DejaVuSans-97"/>
     <path d="M 44.28125 53.078125 
L 44.28125 44.578125 
Q 40.484375 46.53125 36.375 47.5 
Q 32.28125 48.484375 27.875 48.484375 
Q 21.1875 48.484375 17.84375 46.4375 
Q 14.5 44.390625 14.5 40.28125 
Q 14.5 37.15625 16.890625 35.375 
Q 19.28125 33.59375 26.515625 31.984375 
L 29.59375 31.296875 
Q 39.15625 29.25 43.1875 25.515625 
Q 47.21875 21.78125 47.21875 15.09375 
Q 47.21875 7.46875 41.1875 3.015625 
Q 35.15625 -1.421875 24.609375 -1.421875 
Q 20.21875 -1.421875 15.453125 -0.5625 
Q 10.6875 0.296875 5.421875 2 
L 5.421875 11.28125 
Q 10.40625 8.6875 15.234375 7.390625 
Q 20.0625 6.109375 24.8125 6.109375 
Q 31.15625 6.109375 34.5625 8.28125 
Q 37.984375 10.453125 37.984375 14.40625 
Q 37.984375 18.0625 35.515625 20.015625 
Q 33.0625 21.96875 24.703125 23.78125 
L 21.578125 24.515625 
Q 13.234375 26.265625 9.515625 29.90625 
Q 5.8125 33.546875 5.8125 39.890625 
Q 5.8125 47.609375 11.28125 51.796875 
Q 16.75 56 26.8125 56 
Q 31.78125 56 36.171875 55.265625 
Q 40.578125 54.546875 44.28125 53.078125 
z
" id="DejaVuSans-115"/>
    </defs>
    <g transform="translate(302.7525 400.035772)scale(0.12 -0.12)">
     <use xlink:href="#DejaVuSans-80"/>
     <use x="60.302734" xlink:href="#DejaVuSans-104"/>
     <use x="123.681641" xlink:href="#DejaVuSans-97"/>
     <use x="184.960938" xlink:href="#DejaVuSans-115"/>
     <use x="237.060547" xlink:href="#DejaVuSans-101"/>
    </g>
   </g>
  </g>
 </g>
 <defs>
  <clipPath id="p1b44ddd00c">
   <rect height="159.882353" width="558" x="41.667188" y="22.318125"/>
  </clipPath>
  <clipPath id="pebeeea00ab">
   <rect height="159.882353" width="558" x="41.667188" y="214.176949"/>
  </clipPath>
  <clipPath id="p3742cc69c5">
   <rect height="159.882353" width="558" x="41.667188" y="406.035772"/>
  </clipPath>
 </defs>
</svg>
