<?xml version="1.0" encoding="UTF-8"?>
<svg xmlns="http://www.w3.org/2000/svg" xmlns:xlink="http://www.w3.org/1999/xlink" width="330.666667" height="158.666667" viewBox="0 0 330.666667 158.666667" version="1.1">
<defs>
<clipPath id="clip1">
  <path d="M 48.5625 134.667969 L 72.5625 134.667969 L 72.5625 158.667969 L 48.5625 158.667969 Z M 48.5625 134.667969 "/>
</clipPath>
<clipPath id="clip2">
  <path d="M 0.5625 134.667969 L 24.5625 134.667969 L 24.5625 158.667969 L 0.5625 158.667969 Z M 0.5625 134.667969 "/>
</clipPath>
<clipPath id="clip3">
  <path d="M 96.5625 134.667969 L 120.5625 134.667969 L 120.5625 158.667969 L 96.5625 158.667969 Z M 96.5625 134.667969 "/>
</clipPath>
<clipPath id="clip4">
  <path d="M 72.5625 134.667969 L 96.5625 134.667969 L 96.5625 158.667969 L 72.5625 158.667969 Z M 72.5625 134.667969 "/>
</clipPath>
<clipPath id="clip5">
  <path d="M 24.5625 134.667969 L 48.5625 134.667969 L 48.5625 158.667969 L 24.5625 158.667969 Z M 24.5625 134.667969 "/>
</clipPath>
<clipPath id="clip6">
  <path d="M 96.5625 86.667969 L 120.5625 86.667969 L 120.5625 110.667969 L 96.5625 110.667969 Z M 96.5625 86.667969 "/>
</clipPath>
<clipPath id="clip7">
  <path d="M 96.5625 110.667969 L 120.5625 110.667969 L 120.5625 134.667969 L 96.5625 134.667969 Z M 96.5625 110.667969 "/>
</clipPath>
<clipPath id="clip8">
  <path d="M 96.5625 62.667969 L 120.5625 62.667969 L 120.5625 86.667969 L 96.5625 86.667969 Z M 96.5625 62.667969 "/>
</clipPath>
<clipPath id="clip9">
  <path d="M 96.5625 38.667969 L 120.5625 38.667969 L 120.5625 62.667969 L 96.5625 62.667969 Z M 96.5625 38.667969 "/>
</clipPath>
<clipPath id="clip10">
  <path d="M 0.5625 86.667969 L 24.5625 86.667969 L 24.5625 110.667969 L 0.5625 110.667969 Z M 0.5625 86.667969 "/>
</clipPath>
<clipPath id="clip11">
  <path d="M 0.5625 110.667969 L 24.5625 110.667969 L 24.5625 134.667969 L 0.5625 134.667969 Z M 0.5625 110.667969 "/>
</clipPath>
<clipPath id="clip12">
  <path d="M 24.5625 38.667969 L 48.5625 38.667969 L 48.5625 62.667969 L 24.5625 62.667969 Z M 24.5625 38.667969 "/>
</clipPath>
<clipPath id="clip13">
  <path d="M 0.5625 62.667969 L 24.5625 62.667969 L 24.5625 86.667969 L 0.5625 86.667969 Z M 0.5625 62.667969 "/>
</clipPath>
<clipPath id="clip14">
  <path d="M 0.5625 38.667969 L 24.5625 38.667969 L 24.5625 62.667969 L 0.5625 62.667969 Z M 0.5625 38.667969 "/>
</clipPath>
<clipPath id="clip15">
  <path d="M 72.5625 38.667969 L 96.5625 38.667969 L 96.5625 62.667969 L 72.5625 62.667969 Z M 72.5625 38.667969 "/>
</clipPath>
<clipPath id="clip16">
  <path d="M 48.5625 38.667969 L 72.5625 38.667969 L 72.5625 62.667969 L 48.5625 62.667969 Z M 48.5625 38.667969 "/>
</clipPath>
</defs>
<g id="surface1">
<g clip-path="url(#clip1)" clip-rule="nonzero">
<path style=" stroke:none;fill-rule:nonzero;fill:rgb(100%,100%,100%);fill-opacity:1;" d="M 48.5625 158.667969 L 72.5625 158.667969 L 72.5625 134.667969 L 48.5625 134.667969 Z M 48.5625 158.667969 "/>
<path style="fill:none;stroke-width:2;stroke-linecap:round;stroke-linejoin:round;stroke:rgb(0%,0%,0%);stroke-opacity:1;stroke-dasharray:1,4;stroke-miterlimit:10;" d="M 48.421875 236.000977 L 66.421875 236.000977 L 66.421875 254.000977 L 48.421875 254.000977 Z M 48.421875 236.000977 " transform="matrix(1.333333,0,0,1.333333,-16,-180)"/>
</g>
<path style=" stroke:none;fill-rule:nonzero;fill:rgb(0%,0%,0%);fill-opacity:1;" d="M 57.726562 146.242188 C 57.726562 145.230469 57.832031 144.40625 58.039062 143.78125 C 58.246094 143.15625 58.550781 142.679688 58.957031 142.34375 C 59.371094 142.011719 59.894531 141.84375 60.519531 141.84375 C 60.988281 141.84375 61.398438 141.945312 61.746094 142.136719 C 62.089844 142.320312 62.378906 142.585938 62.601562 142.929688 C 62.820312 143.277344 62.996094 143.699219 63.121094 144.199219 C 63.257812 144.699219 63.332031 145.382812 63.332031 146.242188 C 63.332031 147.242188 63.226562 148.054688 63.019531 148.679688 C 62.808594 149.292969 62.496094 149.773438 62.082031 150.117188 C 61.675781 150.449219 61.152344 150.617188 60.519531 150.617188 C 59.695312 150.617188 59.050781 150.320312 58.582031 149.71875 C 58.007812 149.011719 57.726562 147.855469 57.726562 146.242188 Z M 58.808594 146.242188 C 58.808594 147.648438 58.964844 148.585938 59.289062 149.054688 C 59.621094 149.511719 60.027344 149.742188 60.519531 149.742188 C 61.003906 149.742188 61.414062 149.511719 61.746094 149.054688 C 62.082031 148.585938 62.246094 147.648438 62.246094 146.242188 C 62.246094 144.824219 62.082031 143.886719 61.746094 143.429688 C 61.414062 142.960938 61.003906 142.71875 60.519531 142.71875 C 60.027344 142.71875 59.644531 142.921875 59.351562 143.324219 C 58.988281 143.855469 58.808594 144.824219 58.808594 146.242188 Z M 58.808594 146.242188 "/>
<g clip-path="url(#clip2)" clip-rule="nonzero">
<path style=" stroke:none;fill-rule:nonzero;fill:rgb(69.803923%,85.09804%,100%);fill-opacity:1;" d="M 0.5625 158.667969 L 24.5625 158.667969 L 24.5625 134.667969 L 0.5625 134.667969 Z M 0.5625 158.667969 "/>
<path style="fill:none;stroke-width:2;stroke-linecap:round;stroke-linejoin:round;stroke:rgb(0%,0%,0%);stroke-opacity:1;stroke-dasharray:1,4;stroke-miterlimit:10;" d="M 12.421875 236.000977 L 30.421875 236.000977 L 30.421875 254.000977 L 12.421875 254.000977 Z M 12.421875 236.000977 " transform="matrix(1.333333,0,0,1.333333,-16,-180)"/>
</g>
<path style=" stroke:none;fill-rule:nonzero;fill:rgb(0%,0%,0%);fill-opacity:1;" d="M 9.726562 146.242188 C 9.726562 145.230469 9.832031 144.40625 10.039062 143.78125 C 10.246094 143.15625 10.550781 142.679688 10.957031 142.34375 C 11.371094 142.011719 11.894531 141.84375 12.519531 141.84375 C 12.988281 141.84375 13.398438 141.945312 13.746094 142.136719 C 14.089844 142.320312 14.378906 142.585938 14.601562 142.929688 C 14.820312 143.277344 14.996094 143.699219 15.121094 144.199219 C 15.257812 144.699219 15.332031 145.382812 15.332031 146.242188 C 15.332031 147.242188 15.226562 148.054688 15.019531 148.679688 C 14.808594 149.292969 14.496094 149.773438 14.082031 150.117188 C 13.675781 150.449219 13.152344 150.617188 12.519531 150.617188 C 11.695312 150.617188 11.050781 150.320312 10.582031 149.71875 C 10.007812 149.011719 9.726562 147.855469 9.726562 146.242188 Z M 10.808594 146.242188 C 10.808594 147.648438 10.964844 148.585938 11.289062 149.054688 C 11.621094 149.511719 12.027344 149.742188 12.519531 149.742188 C 13.003906 149.742188 13.414062 149.511719 13.746094 149.054688 C 14.082031 148.585938 14.246094 147.648438 14.246094 146.242188 C 14.246094 144.824219 14.082031 143.886719 13.746094 143.429688 C 13.414062 142.960938 13.003906 142.71875 12.519531 142.71875 C 12.027344 142.71875 11.644531 142.921875 11.351562 143.324219 C 10.988281 143.855469 10.808594 144.824219 10.808594 146.242188 Z M 10.808594 146.242188 "/>
<g clip-path="url(#clip3)" clip-rule="nonzero">
<path style=" stroke:none;fill-rule:nonzero;fill:rgb(100%,100%,100%);fill-opacity:1;" d="M 96.5625 158.667969 L 120.5625 158.667969 L 120.5625 134.667969 L 96.5625 134.667969 Z M 96.5625 158.667969 "/>
<path style="fill:none;stroke-width:2;stroke-linecap:round;stroke-linejoin:round;stroke:rgb(0%,0%,0%);stroke-opacity:1;stroke-dasharray:1,4;stroke-miterlimit:10;" d="M 84.421875 236.000977 L 102.421875 236.000977 L 102.421875 254.000977 L 84.421875 254.000977 Z M 84.421875 236.000977 " transform="matrix(1.333333,0,0,1.333333,-16,-180)"/>
</g>
<path style=" stroke:none;fill-rule:nonzero;fill:rgb(0%,0%,0%);fill-opacity:1;" d="M 105.726562 146.242188 C 105.726562 145.230469 105.832031 144.40625 106.039062 143.78125 C 106.246094 143.15625 106.550781 142.679688 106.957031 142.34375 C 107.371094 142.011719 107.894531 141.84375 108.519531 141.84375 C 108.988281 141.84375 109.398438 141.945312 109.746094 142.136719 C 110.089844 142.320312 110.378906 142.585938 110.601562 142.929688 C 110.820312 143.277344 110.996094 143.699219 111.121094 144.199219 C 111.257812 144.699219 111.332031 145.382812 111.332031 146.242188 C 111.332031 147.242188 111.226562 148.054688 111.019531 148.679688 C 110.808594 149.292969 110.496094 149.773438 110.082031 150.117188 C 109.675781 150.449219 109.152344 150.617188 108.519531 150.617188 C 107.695312 150.617188 107.050781 150.320312 106.582031 149.71875 C 106.007812 149.011719 105.726562 147.855469 105.726562 146.242188 Z M 106.808594 146.242188 C 106.808594 147.648438 106.964844 148.585938 107.289062 149.054688 C 107.621094 149.511719 108.027344 149.742188 108.519531 149.742188 C 109.003906 149.742188 109.414062 149.511719 109.746094 149.054688 C 110.082031 148.585938 110.246094 147.648438 110.246094 146.242188 C 110.246094 144.824219 110.082031 143.886719 109.746094 143.429688 C 109.414062 142.960938 109.003906 142.71875 108.519531 142.71875 C 108.027344 142.71875 107.644531 142.921875 107.351562 143.324219 C 106.988281 143.855469 106.808594 144.824219 106.808594 146.242188 Z M 106.808594 146.242188 "/>
<g clip-path="url(#clip4)" clip-rule="nonzero">
<path style=" stroke:none;fill-rule:nonzero;fill:rgb(100%,100%,100%);fill-opacity:1;" d="M 72.5625 158.667969 L 96.5625 158.667969 L 96.5625 134.667969 L 72.5625 134.667969 Z M 72.5625 158.667969 "/>
<path style="fill:none;stroke-width:2;stroke-linecap:round;stroke-linejoin:round;stroke:rgb(0%,0%,0%);stroke-opacity:1;stroke-dasharray:1,4;stroke-miterlimit:10;" d="M 66.421875 236.000977 L 84.421875 236.000977 L 84.421875 254.000977 L 66.421875 254.000977 Z M 66.421875 236.000977 " transform="matrix(1.333333,0,0,1.333333,-16,-180)"/>
</g>
<path style=" stroke:none;fill-rule:nonzero;fill:rgb(0%,0%,0%);fill-opacity:1;" d="M 81.726562 146.242188 C 81.726562 145.230469 81.832031 144.40625 82.039062 143.78125 C 82.246094 143.15625 82.550781 142.679688 82.957031 142.34375 C 83.371094 142.011719 83.894531 141.84375 84.519531 141.84375 C 84.988281 141.84375 85.398438 141.945312 85.746094 142.136719 C 86.089844 142.320312 86.378906 142.585938 86.601562 142.929688 C 86.820312 143.277344 86.996094 143.699219 87.121094 144.199219 C 87.257812 144.699219 87.332031 145.382812 87.332031 146.242188 C 87.332031 147.242188 87.226562 148.054688 87.019531 148.679688 C 86.808594 149.292969 86.496094 149.773438 86.082031 150.117188 C 85.675781 150.449219 85.152344 150.617188 84.519531 150.617188 C 83.695312 150.617188 83.050781 150.320312 82.582031 149.71875 C 82.007812 149.011719 81.726562 147.855469 81.726562 146.242188 Z M 82.808594 146.242188 C 82.808594 147.648438 82.964844 148.585938 83.289062 149.054688 C 83.621094 149.511719 84.027344 149.742188 84.519531 149.742188 C 85.003906 149.742188 85.414062 149.511719 85.746094 149.054688 C 86.082031 148.585938 86.246094 147.648438 86.246094 146.242188 C 86.246094 144.824219 86.082031 143.886719 85.746094 143.429688 C 85.414062 142.960938 85.003906 142.71875 84.519531 142.71875 C 84.027344 142.71875 83.644531 142.921875 83.351562 143.324219 C 82.988281 143.855469 82.808594 144.824219 82.808594 146.242188 Z M 82.808594 146.242188 "/>
<g clip-path="url(#clip5)" clip-rule="nonzero">
<path style=" stroke:none;fill-rule:nonzero;fill:rgb(69.803923%,85.09804%,100%);fill-opacity:1;" d="M 24.5625 158.667969 L 48.5625 158.667969 L 48.5625 134.667969 L 24.5625 134.667969 Z M 24.5625 158.667969 "/>
<path style="fill:none;stroke-width:2;stroke-linecap:round;stroke-linejoin:round;stroke:rgb(0%,0%,0%);stroke-opacity:1;stroke-dasharray:1,4;stroke-miterlimit:10;" d="M 30.421875 236.000977 L 48.421875 236.000977 L 48.421875 254.000977 L 30.421875 254.000977 Z M 30.421875 236.000977 " transform="matrix(1.333333,0,0,1.333333,-16,-180)"/>
</g>
<path style=" stroke:none;fill-rule:nonzero;fill:rgb(0%,0%,0%);fill-opacity:1;" d="M 33.726562 146.242188 C 33.726562 145.230469 33.832031 144.40625 34.039062 143.78125 C 34.246094 143.15625 34.550781 142.679688 34.957031 142.34375 C 35.371094 142.011719 35.894531 141.84375 36.519531 141.84375 C 36.988281 141.84375 37.398438 141.945312 37.746094 142.136719 C 38.089844 142.320312 38.378906 142.585938 38.601562 142.929688 C 38.820312 143.277344 38.996094 143.699219 39.121094 144.199219 C 39.257812 144.699219 39.332031 145.382812 39.332031 146.242188 C 39.332031 147.242188 39.226562 148.054688 39.019531 148.679688 C 38.808594 149.292969 38.496094 149.773438 38.082031 150.117188 C 37.675781 150.449219 37.152344 150.617188 36.519531 150.617188 C 35.695312 150.617188 35.050781 150.320312 34.582031 149.71875 C 34.007812 149.011719 33.726562 147.855469 33.726562 146.242188 Z M 34.808594 146.242188 C 34.808594 147.648438 34.964844 148.585938 35.289062 149.054688 C 35.621094 149.511719 36.027344 149.742188 36.519531 149.742188 C 37.003906 149.742188 37.414062 149.511719 37.746094 149.054688 C 38.082031 148.585938 38.246094 147.648438 38.246094 146.242188 C 38.246094 144.824219 38.082031 143.886719 37.746094 143.429688 C 37.414062 142.960938 37.003906 142.71875 36.519531 142.71875 C 36.027344 142.71875 35.644531 142.921875 35.351562 143.324219 C 34.988281 143.855469 34.808594 144.824219 34.808594 146.242188 Z M 34.808594 146.242188 "/>
<g clip-path="url(#clip6)" clip-rule="nonzero">
<path style=" stroke:none;fill-rule:nonzero;fill:rgb(100%,100%,100%);fill-opacity:1;" d="M 96.5625 110.667969 L 120.5625 110.667969 L 120.5625 86.667969 L 96.5625 86.667969 Z M 96.5625 110.667969 "/>
<path style="fill:none;stroke-width:2;stroke-linecap:round;stroke-linejoin:round;stroke:rgb(0%,0%,0%);stroke-opacity:1;stroke-dasharray:1,4;stroke-miterlimit:10;" d="M 84.421875 200.000977 L 102.421875 200.000977 L 102.421875 218.000977 L 84.421875 218.000977 Z M 84.421875 200.000977 " transform="matrix(1.333333,0,0,1.333333,-16,-180)"/>
</g>
<path style=" stroke:none;fill-rule:nonzero;fill:rgb(0%,0%,0%);fill-opacity:1;" d="M 105.726562 98.242188 C 105.726562 97.230469 105.832031 96.40625 106.039062 95.78125 C 106.246094 95.15625 106.550781 94.679688 106.957031 94.34375 C 107.371094 94.011719 107.894531 93.84375 108.519531 93.84375 C 108.988281 93.84375 109.398438 93.945312 109.746094 94.136719 C 110.089844 94.320312 110.378906 94.585938 110.601562 94.929688 C 110.820312 95.277344 110.996094 95.699219 111.121094 96.199219 C 111.257812 96.699219 111.332031 97.382812 111.332031 98.242188 C 111.332031 99.242188 111.226562 100.054688 111.019531 100.679688 C 110.808594 101.292969 110.496094 101.773438 110.082031 102.117188 C 109.675781 102.449219 109.152344 102.617188 108.519531 102.617188 C 107.695312 102.617188 107.050781 102.320312 106.582031 101.71875 C 106.007812 101.011719 105.726562 99.855469 105.726562 98.242188 Z M 106.808594 98.242188 C 106.808594 99.648438 106.964844 100.585938 107.289062 101.054688 C 107.621094 101.511719 108.027344 101.742188 108.519531 101.742188 C 109.003906 101.742188 109.414062 101.511719 109.746094 101.054688 C 110.082031 100.585938 110.246094 99.648438 110.246094 98.242188 C 110.246094 96.824219 110.082031 95.886719 109.746094 95.429688 C 109.414062 94.960938 109.003906 94.71875 108.519531 94.71875 C 108.027344 94.71875 107.644531 94.921875 107.351562 95.324219 C 106.988281 95.855469 106.808594 96.824219 106.808594 98.242188 Z M 106.808594 98.242188 "/>
<g clip-path="url(#clip7)" clip-rule="nonzero">
<path style=" stroke:none;fill-rule:nonzero;fill:rgb(100%,100%,100%);fill-opacity:1;" d="M 96.5625 134.667969 L 120.5625 134.667969 L 120.5625 110.667969 L 96.5625 110.667969 Z M 96.5625 134.667969 "/>
<path style="fill:none;stroke-width:2;stroke-linecap:round;stroke-linejoin:round;stroke:rgb(0%,0%,0%);stroke-opacity:1;stroke-dasharray:1,4;stroke-miterlimit:10;" d="M 84.421875 218.000977 L 102.421875 218.000977 L 102.421875 236.000977 L 84.421875 236.000977 Z M 84.421875 218.000977 " transform="matrix(1.333333,0,0,1.333333,-16,-180)"/>
</g>
<path style=" stroke:none;fill-rule:nonzero;fill:rgb(0%,0%,0%);fill-opacity:1;" d="M 105.726562 122.242188 C 105.726562 121.230469 105.832031 120.40625 106.039062 119.78125 C 106.246094 119.15625 106.550781 118.679688 106.957031 118.34375 C 107.371094 118.011719 107.894531 117.84375 108.519531 117.84375 C 108.988281 117.84375 109.398438 117.945312 109.746094 118.136719 C 110.089844 118.320312 110.378906 118.585938 110.601562 118.929688 C 110.820312 119.277344 110.996094 119.699219 111.121094 120.199219 C 111.257812 120.699219 111.332031 121.382812 111.332031 122.242188 C 111.332031 123.242188 111.226562 124.054688 111.019531 124.679688 C 110.808594 125.292969 110.496094 125.773438 110.082031 126.117188 C 109.675781 126.449219 109.152344 126.617188 108.519531 126.617188 C 107.695312 126.617188 107.050781 126.320312 106.582031 125.71875 C 106.007812 125.011719 105.726562 123.855469 105.726562 122.242188 Z M 106.808594 122.242188 C 106.808594 123.648438 106.964844 124.585938 107.289062 125.054688 C 107.621094 125.511719 108.027344 125.742188 108.519531 125.742188 C 109.003906 125.742188 109.414062 125.511719 109.746094 125.054688 C 110.082031 124.585938 110.246094 123.648438 110.246094 122.242188 C 110.246094 120.824219 110.082031 119.886719 109.746094 119.429688 C 109.414062 118.960938 109.003906 118.71875 108.519531 118.71875 C 108.027344 118.71875 107.644531 118.921875 107.351562 119.324219 C 106.988281 119.855469 106.808594 120.824219 106.808594 122.242188 Z M 106.808594 122.242188 "/>
<g clip-path="url(#clip8)" clip-rule="nonzero">
<path style=" stroke:none;fill-rule:nonzero;fill:rgb(100%,100%,100%);fill-opacity:1;" d="M 96.5625 86.667969 L 120.5625 86.667969 L 120.5625 62.667969 L 96.5625 62.667969 Z M 96.5625 86.667969 "/>
<path style="fill:none;stroke-width:2;stroke-linecap:round;stroke-linejoin:round;stroke:rgb(0%,0%,0%);stroke-opacity:1;stroke-dasharray:1,4;stroke-miterlimit:10;" d="M 84.421875 182.000977 L 102.421875 182.000977 L 102.421875 200.000977 L 84.421875 200.000977 Z M 84.421875 182.000977 " transform="matrix(1.333333,0,0,1.333333,-16,-180)"/>
</g>
<path style=" stroke:none;fill-rule:nonzero;fill:rgb(0%,0%,0%);fill-opacity:1;" d="M 105.726562 74.242188 C 105.726562 73.230469 105.832031 72.40625 106.039062 71.78125 C 106.246094 71.15625 106.550781 70.679688 106.957031 70.34375 C 107.371094 70.011719 107.894531 69.84375 108.519531 69.84375 C 108.988281 69.84375 109.398438 69.945312 109.746094 70.136719 C 110.089844 70.320312 110.378906 70.585938 110.601562 70.929688 C 110.820312 71.277344 110.996094 71.699219 111.121094 72.199219 C 111.257812 72.699219 111.332031 73.382812 111.332031 74.242188 C 111.332031 75.242188 111.226562 76.054688 111.019531 76.679688 C 110.808594 77.292969 110.496094 77.773438 110.082031 78.117188 C 109.675781 78.449219 109.152344 78.617188 108.519531 78.617188 C 107.695312 78.617188 107.050781 78.320312 106.582031 77.71875 C 106.007812 77.011719 105.726562 75.855469 105.726562 74.242188 Z M 106.808594 74.242188 C 106.808594 75.648438 106.964844 76.585938 107.289062 77.054688 C 107.621094 77.511719 108.027344 77.742188 108.519531 77.742188 C 109.003906 77.742188 109.414062 77.511719 109.746094 77.054688 C 110.082031 76.585938 110.246094 75.648438 110.246094 74.242188 C 110.246094 72.824219 110.082031 71.886719 109.746094 71.429688 C 109.414062 70.960938 109.003906 70.71875 108.519531 70.71875 C 108.027344 70.71875 107.644531 70.921875 107.351562 71.324219 C 106.988281 71.855469 106.808594 72.824219 106.808594 74.242188 Z M 106.808594 74.242188 "/>
<g clip-path="url(#clip9)" clip-rule="nonzero">
<path style=" stroke:none;fill-rule:nonzero;fill:rgb(100%,100%,100%);fill-opacity:1;" d="M 96.5625 62.667969 L 120.5625 62.667969 L 120.5625 38.667969 L 96.5625 38.667969 Z M 96.5625 62.667969 "/>
<path style="fill:none;stroke-width:2;stroke-linecap:round;stroke-linejoin:round;stroke:rgb(0%,0%,0%);stroke-opacity:1;stroke-dasharray:1,4;stroke-miterlimit:10;" d="M 84.421875 164.000977 L 102.421875 164.000977 L 102.421875 182.000977 L 84.421875 182.000977 Z M 84.421875 164.000977 " transform="matrix(1.333333,0,0,1.333333,-16,-180)"/>
</g>
<path style=" stroke:none;fill-rule:nonzero;fill:rgb(0%,0%,0%);fill-opacity:1;" d="M 105.726562 50.242188 C 105.726562 49.230469 105.832031 48.40625 106.039062 47.78125 C 106.246094 47.15625 106.550781 46.679688 106.957031 46.34375 C 107.371094 46.011719 107.894531 45.84375 108.519531 45.84375 C 108.988281 45.84375 109.398438 45.945312 109.746094 46.136719 C 110.089844 46.320312 110.378906 46.585938 110.601562 46.929688 C 110.820312 47.277344 110.996094 47.699219 111.121094 48.199219 C 111.257812 48.699219 111.332031 49.382812 111.332031 50.242188 C 111.332031 51.242188 111.226562 52.054688 111.019531 52.679688 C 110.808594 53.292969 110.496094 53.773438 110.082031 54.117188 C 109.675781 54.449219 109.152344 54.617188 108.519531 54.617188 C 107.695312 54.617188 107.050781 54.320312 106.582031 53.71875 C 106.007812 53.011719 105.726562 51.855469 105.726562 50.242188 Z M 106.808594 50.242188 C 106.808594 51.648438 106.964844 52.585938 107.289062 53.054688 C 107.621094 53.511719 108.027344 53.742188 108.519531 53.742188 C 109.003906 53.742188 109.414062 53.511719 109.746094 53.054688 C 110.082031 52.585938 110.246094 51.648438 110.246094 50.242188 C 110.246094 48.824219 110.082031 47.886719 109.746094 47.429688 C 109.414062 46.960938 109.003906 46.71875 108.519531 46.71875 C 108.027344 46.71875 107.644531 46.921875 107.351562 47.324219 C 106.988281 47.855469 106.808594 48.824219 106.808594 50.242188 Z M 106.808594 50.242188 "/>
<g clip-path="url(#clip10)" clip-rule="nonzero">
<path style=" stroke:none;fill-rule:nonzero;fill:rgb(100%,100%,100%);fill-opacity:1;" d="M 0.5625 110.667969 L 24.5625 110.667969 L 24.5625 86.667969 L 0.5625 86.667969 Z M 0.5625 110.667969 "/>
<path style="fill:none;stroke-width:2;stroke-linecap:round;stroke-linejoin:round;stroke:rgb(0%,0%,0%);stroke-opacity:1;stroke-dasharray:1,4;stroke-miterlimit:10;" d="M 12.421875 200.000977 L 30.421875 200.000977 L 30.421875 218.000977 L 12.421875 218.000977 Z M 12.421875 200.000977 " transform="matrix(1.333333,0,0,1.333333,-16,-180)"/>
</g>
<path style=" stroke:none;fill-rule:nonzero;fill:rgb(0%,0%,0%);fill-opacity:1;" d="M 9.726562 98.242188 C 9.726562 97.230469 9.832031 96.40625 10.039062 95.78125 C 10.246094 95.15625 10.550781 94.679688 10.957031 94.34375 C 11.371094 94.011719 11.894531 93.84375 12.519531 93.84375 C 12.988281 93.84375 13.398438 93.945312 13.746094 94.136719 C 14.089844 94.320312 14.378906 94.585938 14.601562 94.929688 C 14.820312 95.277344 14.996094 95.699219 15.121094 96.199219 C 15.257812 96.699219 15.332031 97.382812 15.332031 98.242188 C 15.332031 99.242188 15.226562 100.054688 15.019531 100.679688 C 14.808594 101.292969 14.496094 101.773438 14.082031 102.117188 C 13.675781 102.449219 13.152344 102.617188 12.519531 102.617188 C 11.695312 102.617188 11.050781 102.320312 10.582031 101.71875 C 10.007812 101.011719 9.726562 99.855469 9.726562 98.242188 Z M 10.808594 98.242188 C 10.808594 99.648438 10.964844 100.585938 11.289062 101.054688 C 11.621094 101.511719 12.027344 101.742188 12.519531 101.742188 C 13.003906 101.742188 13.414062 101.511719 13.746094 101.054688 C 14.082031 100.585938 14.246094 99.648438 14.246094 98.242188 C 14.246094 96.824219 14.082031 95.886719 13.746094 95.429688 C 13.414062 94.960938 13.003906 94.71875 12.519531 94.71875 C 12.027344 94.71875 11.644531 94.921875 11.351562 95.324219 C 10.988281 95.855469 10.808594 96.824219 10.808594 98.242188 Z M 10.808594 98.242188 "/>
<path style=" stroke:none;fill-rule:nonzero;fill:rgb(69.803923%,85.09804%,100%);fill-opacity:1;" d="M 48.5625 86.667969 L 72.5625 86.667969 L 72.5625 62.667969 L 48.5625 62.667969 Z M 48.5625 86.667969 "/>
<path style="fill:none;stroke-width:1;stroke-linecap:round;stroke-linejoin:round;stroke:rgb(0%,0%,0%);stroke-opacity:1;stroke-miterlimit:10;" d="M 48.421875 182.000977 L 66.421875 182.000977 L 66.421875 200.000977 L 48.421875 200.000977 Z M 48.421875 182.000977 " transform="matrix(1.333333,0,0,1.333333,-16,-180)"/>
<path style=" stroke:none;fill-rule:nonzero;fill:rgb(0%,0%,0%);fill-opacity:1;" d="M 61.707031 78.46875 L 60.644531 78.46875 L 60.644531 71.742188 C 60.394531 71.992188 60.058594 72.242188 59.644531 72.492188 C 59.226562 72.730469 58.855469 72.902344 58.539062 73.011719 L 58.539062 71.992188 C 59.121094 71.730469 59.632812 71.402344 60.082031 71.011719 C 60.523438 70.609375 60.835938 70.21875 61.019531 69.84375 L 61.707031 69.84375 Z M 61.707031 78.46875 "/>
<path style=" stroke:none;fill-rule:nonzero;fill:rgb(100%,100%,100%);fill-opacity:1;" d="M 24.5625 86.667969 L 48.5625 86.667969 L 48.5625 62.667969 L 24.5625 62.667969 Z M 24.5625 86.667969 "/>
<path style="fill:none;stroke-width:1;stroke-linecap:round;stroke-linejoin:round;stroke:rgb(0%,0%,0%);stroke-opacity:1;stroke-miterlimit:10;" d="M 30.421875 182.000977 L 48.421875 182.000977 L 48.421875 200.000977 L 30.421875 200.000977 Z M 30.421875 182.000977 " transform="matrix(1.333333,0,0,1.333333,-16,-180)"/>
<path style=" stroke:none;fill-rule:nonzero;fill:rgb(0%,0%,0%);fill-opacity:1;" d="M 33.726562 74.242188 C 33.726562 73.230469 33.832031 72.40625 34.039062 71.78125 C 34.246094 71.15625 34.550781 70.679688 34.957031 70.34375 C 35.371094 70.011719 35.894531 69.84375 36.519531 69.84375 C 36.988281 69.84375 37.398438 69.945312 37.746094 70.136719 C 38.089844 70.320312 38.378906 70.585938 38.601562 70.929688 C 38.820312 71.277344 38.996094 71.699219 39.121094 72.199219 C 39.257812 72.699219 39.332031 73.382812 39.332031 74.242188 C 39.332031 75.242188 39.226562 76.054688 39.019531 76.679688 C 38.808594 77.292969 38.496094 77.773438 38.082031 78.117188 C 37.675781 78.449219 37.152344 78.617188 36.519531 78.617188 C 35.695312 78.617188 35.050781 78.320312 34.582031 77.71875 C 34.007812 77.011719 33.726562 75.855469 33.726562 74.242188 Z M 34.808594 74.242188 C 34.808594 75.648438 34.964844 76.585938 35.289062 77.054688 C 35.621094 77.511719 36.027344 77.742188 36.519531 77.742188 C 37.003906 77.742188 37.414062 77.511719 37.746094 77.054688 C 38.082031 76.585938 38.246094 75.648438 38.246094 74.242188 C 38.246094 72.824219 38.082031 71.886719 37.746094 71.429688 C 37.414062 70.960938 37.003906 70.71875 36.519531 70.71875 C 36.027344 70.71875 35.644531 70.921875 35.351562 71.324219 C 34.988281 71.855469 34.808594 72.824219 34.808594 74.242188 Z M 34.808594 74.242188 "/>
<g clip-path="url(#clip11)" clip-rule="nonzero">
<path style=" stroke:none;fill-rule:nonzero;fill:rgb(69.803923%,85.09804%,100%);fill-opacity:1;" d="M 0.5625 134.667969 L 24.5625 134.667969 L 24.5625 110.667969 L 0.5625 110.667969 Z M 0.5625 134.667969 "/>
<path style="fill:none;stroke-width:2;stroke-linecap:round;stroke-linejoin:round;stroke:rgb(0%,0%,0%);stroke-opacity:1;stroke-dasharray:1,4;stroke-miterlimit:10;" d="M 12.421875 218.000977 L 30.421875 218.000977 L 30.421875 236.000977 L 12.421875 236.000977 Z M 12.421875 218.000977 " transform="matrix(1.333333,0,0,1.333333,-16,-180)"/>
</g>
<path style=" stroke:none;fill-rule:nonzero;fill:rgb(0%,0%,0%);fill-opacity:1;" d="M 9.726562 122.242188 C 9.726562 121.230469 9.832031 120.40625 10.039062 119.78125 C 10.246094 119.15625 10.550781 118.679688 10.957031 118.34375 C 11.371094 118.011719 11.894531 117.84375 12.519531 117.84375 C 12.988281 117.84375 13.398438 117.945312 13.746094 118.136719 C 14.089844 118.320312 14.378906 118.585938 14.601562 118.929688 C 14.820312 119.277344 14.996094 119.699219 15.121094 120.199219 C 15.257812 120.699219 15.332031 121.382812 15.332031 122.242188 C 15.332031 123.242188 15.226562 124.054688 15.019531 124.679688 C 14.808594 125.292969 14.496094 125.773438 14.082031 126.117188 C 13.675781 126.449219 13.152344 126.617188 12.519531 126.617188 C 11.695312 126.617188 11.050781 126.320312 10.582031 125.71875 C 10.007812 125.011719 9.726562 123.855469 9.726562 122.242188 Z M 10.808594 122.242188 C 10.808594 123.648438 10.964844 124.585938 11.289062 125.054688 C 11.621094 125.511719 12.027344 125.742188 12.519531 125.742188 C 13.003906 125.742188 13.414062 125.511719 13.746094 125.054688 C 14.082031 124.585938 14.246094 123.648438 14.246094 122.242188 C 14.246094 120.824219 14.082031 119.886719 13.746094 119.429688 C 13.414062 118.960938 13.003906 118.71875 12.519531 118.71875 C 12.027344 118.71875 11.644531 118.921875 11.351562 119.324219 C 10.988281 119.855469 10.808594 120.824219 10.808594 122.242188 Z M 10.808594 122.242188 "/>
<g clip-path="url(#clip12)" clip-rule="nonzero">
<path style=" stroke:none;fill-rule:nonzero;fill:rgb(100%,100%,100%);fill-opacity:1;" d="M 24.5625 62.667969 L 48.5625 62.667969 L 48.5625 38.667969 L 24.5625 38.667969 Z M 24.5625 62.667969 "/>
<path style="fill:none;stroke-width:2;stroke-linecap:round;stroke-linejoin:round;stroke:rgb(0%,0%,0%);stroke-opacity:1;stroke-dasharray:1,4;stroke-miterlimit:10;" d="M 30.421875 164.000977 L 48.421875 164.000977 L 48.421875 182.000977 L 30.421875 182.000977 Z M 30.421875 164.000977 " transform="matrix(1.333333,0,0,1.333333,-16,-180)"/>
</g>
<path style=" stroke:none;fill-rule:nonzero;fill:rgb(0%,0%,0%);fill-opacity:1;" d="M 33.726562 50.242188 C 33.726562 49.230469 33.832031 48.40625 34.039062 47.78125 C 34.246094 47.15625 34.550781 46.679688 34.957031 46.34375 C 35.371094 46.011719 35.894531 45.84375 36.519531 45.84375 C 36.988281 45.84375 37.398438 45.945312 37.746094 46.136719 C 38.089844 46.320312 38.378906 46.585938 38.601562 46.929688 C 38.820312 47.277344 38.996094 47.699219 39.121094 48.199219 C 39.257812 48.699219 39.332031 49.382812 39.332031 50.242188 C 39.332031 51.242188 39.226562 52.054688 39.019531 52.679688 C 38.808594 53.292969 38.496094 53.773438 38.082031 54.117188 C 37.675781 54.449219 37.152344 54.617188 36.519531 54.617188 C 35.695312 54.617188 35.050781 54.320312 34.582031 53.71875 C 34.007812 53.011719 33.726562 51.855469 33.726562 50.242188 Z M 34.808594 50.242188 C 34.808594 51.648438 34.964844 52.585938 35.289062 53.054688 C 35.621094 53.511719 36.027344 53.742188 36.519531 53.742188 C 37.003906 53.742188 37.414062 53.511719 37.746094 53.054688 C 38.082031 52.585938 38.246094 51.648438 38.246094 50.242188 C 38.246094 48.824219 38.082031 47.886719 37.746094 47.429688 C 37.414062 46.960938 37.003906 46.71875 36.519531 46.71875 C 36.027344 46.71875 35.644531 46.921875 35.351562 47.324219 C 34.988281 47.855469 34.808594 48.824219 34.808594 50.242188 Z M 34.808594 50.242188 "/>
<path style=" stroke:none;fill-rule:nonzero;fill:rgb(100%,100%,100%);fill-opacity:1;" d="M 24.5625 110.667969 L 48.5625 110.667969 L 48.5625 86.667969 L 24.5625 86.667969 Z M 24.5625 110.667969 "/>
<path style="fill:none;stroke-width:1;stroke-linecap:round;stroke-linejoin:round;stroke:rgb(0%,0%,0%);stroke-opacity:1;stroke-miterlimit:10;" d="M 30.421875 200.000977 L 48.421875 200.000977 L 48.421875 218.000977 L 30.421875 218.000977 Z M 30.421875 200.000977 " transform="matrix(1.333333,0,0,1.333333,-16,-180)"/>
<path style=" stroke:none;fill-rule:nonzero;fill:rgb(0%,0%,0%);fill-opacity:1;" d="M 33.726562 100.199219 L 34.789062 100.054688 C 34.914062 100.652344 35.113281 101.085938 35.394531 101.34375 C 35.683594 101.609375 36.042969 101.742188 36.476562 101.742188 C 36.960938 101.742188 37.371094 101.574219 37.707031 101.242188 C 38.050781 100.898438 38.226562 100.464844 38.226562 99.949219 C 38.226562 99.464844 38.066406 99.070312 37.746094 98.761719 C 37.441406 98.445312 37.042969 98.28125 36.558594 98.28125 C 36.351562 98.28125 36.101562 98.324219 35.808594 98.40625 L 35.933594 97.46875 C 36.003906 97.484375 36.058594 97.492188 36.101562 97.492188 C 36.542969 97.492188 36.945312 97.375 37.308594 97.136719 C 37.667969 96.902344 37.851562 96.542969 37.851562 96.054688 C 37.851562 95.667969 37.714844 95.34375 37.457031 95.09375 C 37.191406 94.84375 36.851562 94.71875 36.433594 94.71875 C 36.027344 94.71875 35.691406 94.855469 35.414062 95.117188 C 35.148438 95.367188 34.976562 95.75 34.894531 96.261719 L 33.832031 96.074219 C 33.964844 95.367188 34.257812 94.820312 34.707031 94.429688 C 35.164062 94.042969 35.730469 93.84375 36.414062 93.84375 C 36.882812 93.84375 37.316406 93.949219 37.707031 94.15625 C 38.105469 94.355469 38.414062 94.625 38.621094 94.96875 C 38.832031 95.320312 38.933594 95.6875 38.933594 96.074219 C 38.933594 96.449219 38.832031 96.792969 38.621094 97.09375 C 38.425781 97.402344 38.132812 97.648438 37.746094 97.824219 C 38.257812 97.9375 38.652344 98.179688 38.933594 98.554688 C 39.210938 98.917969 39.351562 99.375 39.351562 99.929688 C 39.351562 100.679688 39.070312 101.320312 38.519531 101.84375 C 37.976562 102.359375 37.289062 102.617188 36.457031 102.617188 C 35.707031 102.617188 35.082031 102.398438 34.582031 101.949219 C 34.082031 101.507812 33.792969 100.921875 33.726562 100.199219 Z M 33.726562 100.199219 "/>
<g clip-path="url(#clip13)" clip-rule="nonzero">
<path style=" stroke:none;fill-rule:nonzero;fill:rgb(100%,100%,100%);fill-opacity:1;" d="M 0.5625 86.667969 L 24.5625 86.667969 L 24.5625 62.667969 L 0.5625 62.667969 Z M 0.5625 86.667969 "/>
<path style="fill:none;stroke-width:2;stroke-linecap:round;stroke-linejoin:round;stroke:rgb(0%,0%,0%);stroke-opacity:1;stroke-dasharray:1,4;stroke-miterlimit:10;" d="M 12.421875 182.000977 L 30.421875 182.000977 L 30.421875 200.000977 L 12.421875 200.000977 Z M 12.421875 182.000977 " transform="matrix(1.333333,0,0,1.333333,-16,-180)"/>
</g>
<path style=" stroke:none;fill-rule:nonzero;fill:rgb(0%,0%,0%);fill-opacity:1;" d="M 9.726562 74.242188 C 9.726562 73.230469 9.832031 72.40625 10.039062 71.78125 C 10.246094 71.15625 10.550781 70.679688 10.957031 70.34375 C 11.371094 70.011719 11.894531 69.84375 12.519531 69.84375 C 12.988281 69.84375 13.398438 69.945312 13.746094 70.136719 C 14.089844 70.320312 14.378906 70.585938 14.601562 70.929688 C 14.820312 71.277344 14.996094 71.699219 15.121094 72.199219 C 15.257812 72.699219 15.332031 73.382812 15.332031 74.242188 C 15.332031 75.242188 15.226562 76.054688 15.019531 76.679688 C 14.808594 77.292969 14.496094 77.773438 14.082031 78.117188 C 13.675781 78.449219 13.152344 78.617188 12.519531 78.617188 C 11.695312 78.617188 11.050781 78.320312 10.582031 77.71875 C 10.007812 77.011719 9.726562 75.855469 9.726562 74.242188 Z M 10.808594 74.242188 C 10.808594 75.648438 10.964844 76.585938 11.289062 77.054688 C 11.621094 77.511719 12.027344 77.742188 12.519531 77.742188 C 13.003906 77.742188 13.414062 77.511719 13.746094 77.054688 C 14.082031 76.585938 14.246094 75.648438 14.246094 74.242188 C 14.246094 72.824219 14.082031 71.886719 13.746094 71.429688 C 13.414062 70.960938 13.003906 70.71875 12.519531 70.71875 C 12.027344 70.71875 11.644531 70.921875 11.351562 71.324219 C 10.988281 71.855469 10.808594 72.824219 10.808594 74.242188 Z M 10.808594 74.242188 "/>
<path style=" stroke:none;fill-rule:nonzero;fill:rgb(100%,100%,100%);fill-opacity:1;" d="M 72.5625 134.667969 L 96.5625 134.667969 L 96.5625 110.667969 L 72.5625 110.667969 Z M 72.5625 134.667969 "/>
<path style="fill:none;stroke-width:1;stroke-linecap:round;stroke-linejoin:round;stroke:rgb(0%,0%,0%);stroke-opacity:1;stroke-miterlimit:10;" d="M 66.421875 218.000977 L 84.421875 218.000977 L 84.421875 236.000977 L 66.421875 236.000977 Z M 66.421875 218.000977 " transform="matrix(1.333333,0,0,1.333333,-16,-180)"/>
<path style=" stroke:none;fill-rule:nonzero;fill:rgb(0%,0%,0%);fill-opacity:1;" d="M 83.351562 121.804688 C 82.902344 121.652344 82.582031 121.429688 82.371094 121.136719 C 82.164062 120.835938 82.058594 120.46875 82.058594 120.054688 C 82.058594 119.429688 82.277344 118.90625 82.726562 118.492188 C 83.183594 118.0625 83.777344 117.84375 84.519531 117.84375 C 85.269531 117.84375 85.871094 118.070312 86.332031 118.511719 C 86.789062 118.945312 87.019531 119.46875 87.019531 120.09375 C 87.019531 120.484375 86.914062 120.835938 86.707031 121.136719 C 86.496094 121.429688 86.175781 121.652344 85.746094 121.804688 C 86.273438 121.984375 86.675781 122.273438 86.957031 122.65625 C 87.230469 123.03125 87.371094 123.484375 87.371094 124.011719 C 87.371094 124.75 87.105469 125.367188 86.582031 125.867188 C 86.066406 126.367188 85.382812 126.617188 84.539062 126.617188 C 83.691406 126.617188 83.003906 126.367188 82.476562 125.867188 C 81.960938 125.367188 81.707031 124.742188 81.707031 123.992188 C 81.707031 123.4375 81.839844 122.96875 82.121094 122.59375 C 82.414062 122.210938 82.820312 121.945312 83.351562 121.804688 Z M 83.144531 120.03125 C 83.144531 120.4375 83.269531 120.773438 83.519531 121.03125 C 83.777344 121.28125 84.121094 121.40625 84.539062 121.40625 C 84.957031 121.40625 85.289062 121.28125 85.539062 121.03125 C 85.800781 120.773438 85.933594 120.449219 85.933594 120.074219 C 85.933594 119.699219 85.800781 119.382812 85.539062 119.117188 C 85.273438 118.855469 84.941406 118.71875 84.539062 118.71875 C 84.132812 118.71875 83.800781 118.855469 83.539062 119.117188 C 83.273438 119.367188 83.144531 119.671875 83.144531 120.03125 Z M 82.789062 123.992188 C 82.789062 124.296875 82.855469 124.589844 82.996094 124.867188 C 83.148438 125.148438 83.363281 125.359375 83.644531 125.511719 C 83.917969 125.667969 84.226562 125.742188 84.558594 125.742188 C 85.058594 125.742188 85.464844 125.585938 85.789062 125.261719 C 86.121094 124.945312 86.289062 124.53125 86.289062 124.03125 C 86.289062 123.523438 86.121094 123.09375 85.789062 122.761719 C 85.457031 122.429688 85.027344 122.261719 84.519531 122.261719 C 84.019531 122.261719 83.601562 122.429688 83.269531 122.761719 C 82.945312 123.09375 82.789062 123.507812 82.789062 123.992188 Z M 82.789062 123.992188 "/>
<path style=" stroke:none;fill-rule:nonzero;fill:rgb(100%,100%,100%);fill-opacity:1;" d="M 72.5625 110.667969 L 96.5625 110.667969 L 96.5625 86.667969 L 72.5625 86.667969 Z M 72.5625 110.667969 "/>
<path style="fill:none;stroke-width:1;stroke-linecap:round;stroke-linejoin:round;stroke:rgb(0%,0%,0%);stroke-opacity:1;stroke-miterlimit:10;" d="M 66.421875 200.000977 L 84.421875 200.000977 L 84.421875 218.000977 L 66.421875 218.000977 Z M 66.421875 200.000977 " transform="matrix(1.333333,0,0,1.333333,-16,-180)"/>
<path style=" stroke:none;fill-rule:nonzero;fill:rgb(0%,0%,0%);fill-opacity:1;" d="M 81.726562 100.21875 L 82.832031 100.117188 C 82.914062 100.65625 83.101562 101.070312 83.394531 101.34375 C 83.695312 101.609375 84.058594 101.742188 84.476562 101.742188 C 84.988281 101.742188 85.417969 101.554688 85.769531 101.179688 C 86.128906 100.792969 86.308594 100.28125 86.308594 99.65625 C 86.308594 99.046875 86.132812 98.570312 85.789062 98.21875 C 85.457031 97.875 85.019531 97.699219 84.476562 97.699219 C 84.128906 97.699219 83.816406 97.78125 83.539062 97.949219 C 83.273438 98.105469 83.058594 98.296875 82.894531 98.53125 L 81.914062 98.40625 L 82.746094 93.992188 L 87.019531 93.992188 L 87.019531 95.011719 L 83.582031 95.011719 L 83.121094 97.304688 C 83.632812 96.960938 84.175781 96.78125 84.746094 96.78125 C 85.496094 96.78125 86.128906 97.042969 86.644531 97.554688 C 87.152344 98.070312 87.414062 98.734375 87.414062 99.554688 C 87.414062 100.335938 87.191406 101.007812 86.746094 101.574219 C 86.191406 102.273438 85.433594 102.617188 84.476562 102.617188 C 83.695312 102.617188 83.058594 102.402344 82.558594 101.96875 C 82.070312 101.527344 81.792969 100.945312 81.726562 100.21875 Z M 81.726562 100.21875 "/>
<g clip-path="url(#clip14)" clip-rule="nonzero">
<path style=" stroke:none;fill-rule:nonzero;fill:rgb(100%,100%,100%);fill-opacity:1;" d="M 0.5625 62.667969 L 24.5625 62.667969 L 24.5625 38.667969 L 0.5625 38.667969 Z M 0.5625 62.667969 "/>
<path style="fill:none;stroke-width:2;stroke-linecap:round;stroke-linejoin:round;stroke:rgb(0%,0%,0%);stroke-opacity:1;stroke-dasharray:1,4;stroke-miterlimit:10;" d="M 12.421875 164.000977 L 30.421875 164.000977 L 30.421875 182.000977 L 12.421875 182.000977 Z M 12.421875 164.000977 " transform="matrix(1.333333,0,0,1.333333,-16,-180)"/>
</g>
<path style=" stroke:none;fill-rule:nonzero;fill:rgb(0%,0%,0%);fill-opacity:1;" d="M 9.726562 50.242188 C 9.726562 49.230469 9.832031 48.40625 10.039062 47.78125 C 10.246094 47.15625 10.550781 46.679688 10.957031 46.34375 C 11.371094 46.011719 11.894531 45.84375 12.519531 45.84375 C 12.988281 45.84375 13.398438 45.945312 13.746094 46.136719 C 14.089844 46.320312 14.378906 46.585938 14.601562 46.929688 C 14.820312 47.277344 14.996094 47.699219 15.121094 48.199219 C 15.257812 48.699219 15.332031 49.382812 15.332031 50.242188 C 15.332031 51.242188 15.226562 52.054688 15.019531 52.679688 C 14.808594 53.292969 14.496094 53.773438 14.082031 54.117188 C 13.675781 54.449219 13.152344 54.617188 12.519531 54.617188 C 11.695312 54.617188 11.050781 54.320312 10.582031 53.71875 C 10.007812 53.011719 9.726562 51.855469 9.726562 50.242188 Z M 10.808594 50.242188 C 10.808594 51.648438 10.964844 52.585938 11.289062 53.054688 C 11.621094 53.511719 12.027344 53.742188 12.519531 53.742188 C 13.003906 53.742188 13.414062 53.511719 13.746094 53.054688 C 14.082031 52.585938 14.246094 51.648438 14.246094 50.242188 C 14.246094 48.824219 14.082031 47.886719 13.746094 47.429688 C 13.414062 46.960938 13.003906 46.71875 12.519531 46.71875 C 12.027344 46.71875 11.644531 46.921875 11.351562 47.324219 C 10.988281 47.855469 10.808594 48.824219 10.808594 50.242188 Z M 10.808594 50.242188 "/>
<path style=" stroke:none;fill-rule:nonzero;fill:rgb(69.803923%,85.09804%,100%);fill-opacity:1;" d="M 72.5625 86.667969 L 96.5625 86.667969 L 96.5625 62.667969 L 72.5625 62.667969 Z M 72.5625 86.667969 "/>
<path style="fill:none;stroke-width:1;stroke-linecap:round;stroke-linejoin:round;stroke:rgb(0%,0%,0%);stroke-opacity:1;stroke-miterlimit:10;" d="M 66.421875 182.000977 L 84.421875 182.000977 L 84.421875 200.000977 L 66.421875 200.000977 Z M 66.421875 182.000977 " transform="matrix(1.333333,0,0,1.333333,-16,-180)"/>
<path style=" stroke:none;fill-rule:nonzero;fill:rgb(0%,0%,0%);fill-opacity:1;" d="M 87.269531 77.449219 L 87.269531 78.46875 L 81.582031 78.46875 C 81.582031 78.21875 81.621094 77.980469 81.707031 77.742188 C 81.855469 77.355469 82.089844 76.96875 82.414062 76.59375 C 82.730469 76.21875 83.191406 75.792969 83.789062 75.304688 C 84.714844 74.527344 85.339844 73.917969 85.664062 73.46875 C 85.996094 73.027344 86.164062 72.605469 86.164062 72.199219 C 86.164062 71.78125 86.007812 71.4375 85.707031 71.15625 C 85.414062 70.867188 85.027344 70.71875 84.558594 70.71875 C 84.042969 70.71875 83.632812 70.875 83.332031 71.179688 C 83.023438 71.484375 82.871094 71.90625 82.871094 72.449219 L 81.789062 72.324219 C 81.855469 71.523438 82.132812 70.90625 82.621094 70.492188 C 83.105469 70.0625 83.757812 69.84375 84.582031 69.84375 C 85.398438 69.84375 86.042969 70.074219 86.519531 70.53125 C 87.003906 70.992188 87.246094 71.554688 87.246094 72.21875 C 87.246094 72.570312 87.175781 72.90625 87.039062 73.242188 C 86.898438 73.574219 86.664062 73.929688 86.332031 74.304688 C 86.007812 74.667969 85.476562 75.167969 84.726562 75.804688 C 84.085938 76.335938 83.675781 76.695312 83.496094 76.886719 C 83.316406 77.085938 83.167969 77.273438 83.058594 77.449219 Z M 87.269531 77.449219 "/>
<g clip-path="url(#clip15)" clip-rule="nonzero">
<path style=" stroke:none;fill-rule:nonzero;fill:rgb(69.803923%,85.09804%,100%);fill-opacity:1;" d="M 72.5625 62.667969 L 96.5625 62.667969 L 96.5625 38.667969 L 72.5625 38.667969 Z M 72.5625 62.667969 "/>
<path style="fill:none;stroke-width:2;stroke-linecap:round;stroke-linejoin:round;stroke:rgb(0%,0%,0%);stroke-opacity:1;stroke-dasharray:1,4;stroke-miterlimit:10;" d="M 66.421875 164.000977 L 84.421875 164.000977 L 84.421875 182.000977 L 66.421875 182.000977 Z M 66.421875 164.000977 " transform="matrix(1.333333,0,0,1.333333,-16,-180)"/>
</g>
<path style=" stroke:none;fill-rule:nonzero;fill:rgb(0%,0%,0%);fill-opacity:1;" d="M 81.726562 50.242188 C 81.726562 49.230469 81.832031 48.40625 82.039062 47.78125 C 82.246094 47.15625 82.550781 46.679688 82.957031 46.34375 C 83.371094 46.011719 83.894531 45.84375 84.519531 45.84375 C 84.988281 45.84375 85.398438 45.945312 85.746094 46.136719 C 86.089844 46.320312 86.378906 46.585938 86.601562 46.929688 C 86.820312 47.277344 86.996094 47.699219 87.121094 48.199219 C 87.257812 48.699219 87.332031 49.382812 87.332031 50.242188 C 87.332031 51.242188 87.226562 52.054688 87.019531 52.679688 C 86.808594 53.292969 86.496094 53.773438 86.082031 54.117188 C 85.675781 54.449219 85.152344 54.617188 84.519531 54.617188 C 83.695312 54.617188 83.050781 54.320312 82.582031 53.71875 C 82.007812 53.011719 81.726562 51.855469 81.726562 50.242188 Z M 82.808594 50.242188 C 82.808594 51.648438 82.964844 52.585938 83.289062 53.054688 C 83.621094 53.511719 84.027344 53.742188 84.519531 53.742188 C 85.003906 53.742188 85.414062 53.511719 85.746094 53.054688 C 86.082031 52.585938 86.246094 51.648438 86.246094 50.242188 C 86.246094 48.824219 86.082031 47.886719 85.746094 47.429688 C 85.414062 46.960938 85.003906 46.71875 84.519531 46.71875 C 84.027344 46.71875 83.644531 46.921875 83.351562 47.324219 C 82.988281 47.855469 82.808594 48.824219 82.808594 50.242188 Z M 82.808594 50.242188 "/>
<path style=" stroke:none;fill-rule:nonzero;fill:rgb(100%,100%,100%);fill-opacity:1;" d="M 48.5625 134.667969 L 72.5625 134.667969 L 72.5625 110.667969 L 48.5625 110.667969 Z M 48.5625 134.667969 "/>
<path style="fill:none;stroke-width:1;stroke-linecap:round;stroke-linejoin:round;stroke:rgb(0%,0%,0%);stroke-opacity:1;stroke-miterlimit:10;" d="M 48.421875 218.000977 L 66.421875 218.000977 L 66.421875 236.000977 L 48.421875 236.000977 Z M 48.421875 218.000977 " transform="matrix(1.333333,0,0,1.333333,-16,-180)"/>
<path style=" stroke:none;fill-rule:nonzero;fill:rgb(0%,0%,0%);fill-opacity:1;" d="M 57.789062 119.011719 L 57.789062 117.992188 L 63.351562 117.992188 L 63.351562 118.804688 C 62.808594 119.386719 62.269531 120.167969 61.726562 121.136719 C 61.183594 122.09375 60.769531 123.089844 60.476562 124.117188 C 60.269531 124.824219 60.132812 125.609375 60.082031 126.46875 L 58.996094 126.46875 C 59.007812 125.792969 59.144531 124.980469 59.394531 124.03125 C 59.644531 123.074219 60.003906 122.152344 60.476562 121.261719 C 60.960938 120.375 61.464844 119.625 61.996094 119.011719 Z M 57.789062 119.011719 "/>
<path style=" stroke:none;fill-rule:nonzero;fill:rgb(100%,100%,100%);fill-opacity:1;" d="M 48.5625 110.667969 L 72.5625 110.667969 L 72.5625 86.667969 L 48.5625 86.667969 Z M 48.5625 110.667969 "/>
<path style="fill:none;stroke-width:1;stroke-linecap:round;stroke-linejoin:round;stroke:rgb(0%,0%,0%);stroke-opacity:1;stroke-miterlimit:10;" d="M 48.421875 200.000977 L 66.421875 200.000977 L 66.421875 218.000977 L 48.421875 218.000977 Z M 48.421875 200.000977 " transform="matrix(1.333333,0,0,1.333333,-16,-180)"/>
<path style=" stroke:none;fill-rule:nonzero;fill:rgb(0%,0%,0%);fill-opacity:1;" d="M 61.101562 102.46875 L 61.101562 100.40625 L 57.371094 100.40625 L 57.371094 99.449219 L 61.289062 93.886719 L 62.164062 93.886719 L 62.164062 99.449219 L 63.332031 99.449219 L 63.332031 100.40625 L 62.164062 100.40625 L 62.164062 102.46875 Z M 61.101562 99.449219 L 61.101562 95.574219 L 58.414062 99.449219 Z M 61.101562 99.449219 "/>
<g clip-path="url(#clip16)" clip-rule="nonzero">
<path style=" stroke:none;fill-rule:nonzero;fill:rgb(69.803923%,85.09804%,100%);fill-opacity:1;" d="M 48.5625 62.667969 L 72.5625 62.667969 L 72.5625 38.667969 L 48.5625 38.667969 Z M 48.5625 62.667969 "/>
<path style="fill:none;stroke-width:2;stroke-linecap:round;stroke-linejoin:round;stroke:rgb(0%,0%,0%);stroke-opacity:1;stroke-dasharray:1,4;stroke-miterlimit:10;" d="M 48.421875 164.000977 L 66.421875 164.000977 L 66.421875 182.000977 L 48.421875 182.000977 Z M 48.421875 164.000977 " transform="matrix(1.333333,0,0,1.333333,-16,-180)"/>
</g>
<path style=" stroke:none;fill-rule:nonzero;fill:rgb(0%,0%,0%);fill-opacity:1;" d="M 57.726562 50.242188 C 57.726562 49.230469 57.832031 48.40625 58.039062 47.78125 C 58.246094 47.15625 58.550781 46.679688 58.957031 46.34375 C 59.371094 46.011719 59.894531 45.84375 60.519531 45.84375 C 60.988281 45.84375 61.398438 45.945312 61.746094 46.136719 C 62.089844 46.320312 62.378906 46.585938 62.601562 46.929688 C 62.820312 47.277344 62.996094 47.699219 63.121094 48.199219 C 63.257812 48.699219 63.332031 49.382812 63.332031 50.242188 C 63.332031 51.242188 63.226562 52.054688 63.019531 52.679688 C 62.808594 53.292969 62.496094 53.773438 62.082031 54.117188 C 61.675781 54.449219 61.152344 54.617188 60.519531 54.617188 C 59.695312 54.617188 59.050781 54.320312 58.582031 53.71875 C 58.007812 53.011719 57.726562 51.855469 57.726562 50.242188 Z M 58.808594 50.242188 C 58.808594 51.648438 58.964844 52.585938 59.289062 53.054688 C 59.621094 53.511719 60.027344 53.742188 60.519531 53.742188 C 61.003906 53.742188 61.414062 53.511719 61.746094 53.054688 C 62.082031 52.585938 62.246094 51.648438 62.246094 50.242188 C 62.246094 48.824219 62.082031 47.886719 61.746094 47.429688 C 61.414062 46.960938 61.003906 46.71875 60.519531 46.71875 C 60.027344 46.71875 59.644531 46.921875 59.351562 47.324219 C 58.988281 47.855469 58.808594 48.824219 58.808594 50.242188 Z M 58.808594 50.242188 "/>
<path style=" stroke:none;fill-rule:nonzero;fill:rgb(69.803923%,85.09804%,100%);fill-opacity:1;" d="M 24.5625 134.667969 L 48.5625 134.667969 L 48.5625 110.667969 L 24.5625 110.667969 Z M 24.5625 134.667969 "/>
<path style="fill:none;stroke-width:1;stroke-linecap:round;stroke-linejoin:round;stroke:rgb(0%,0%,0%);stroke-opacity:1;stroke-miterlimit:10;" d="M 30.421875 218.000977 L 48.421875 218.000977 L 48.421875 236.000977 L 30.421875 236.000977 Z M 30.421875 218.000977 " transform="matrix(1.333333,0,0,1.333333,-16,-180)"/>
<path style=" stroke:none;fill-rule:nonzero;fill:rgb(0%,0%,0%);fill-opacity:1;" d="M 39.207031 119.992188 L 38.144531 120.074219 C 38.058594 119.65625 37.925781 119.355469 37.746094 119.15625 C 37.464844 118.867188 37.121094 118.71875 36.707031 118.71875 C 36.355469 118.71875 36.058594 118.8125 35.808594 118.992188 C 35.476562 119.242188 35.210938 119.59375 35.019531 120.054688 C 34.835938 120.511719 34.738281 121.171875 34.726562 122.03125 C 34.976562 121.65625 35.277344 121.382812 35.644531 121.199219 C 36.019531 121.007812 36.402344 120.90625 36.808594 120.90625 C 37.519531 120.90625 38.113281 121.167969 38.601562 121.679688 C 39.101562 122.195312 39.351562 122.859375 39.351562 123.679688 C 39.351562 124.21875 39.230469 124.730469 38.996094 125.199219 C 38.757812 125.65625 38.441406 126.011719 38.039062 126.261719 C 37.632812 126.496094 37.175781 126.617188 36.664062 126.617188 C 35.789062 126.617188 35.070312 126.296875 34.519531 125.65625 C 33.960938 125.007812 33.683594 123.9375 33.683594 122.449219 C 33.683594 120.796875 33.988281 119.589844 34.601562 118.824219 C 35.128906 118.171875 35.851562 117.84375 36.769531 117.84375 C 37.433594 117.84375 37.980469 118.042969 38.414062 118.429688 C 38.839844 118.804688 39.105469 119.324219 39.207031 119.992188 Z M 34.894531 123.679688 C 34.894531 124.054688 34.964844 124.40625 35.121094 124.742188 C 35.273438 125.0625 35.488281 125.3125 35.769531 125.492188 C 36.042969 125.65625 36.335938 125.742188 36.644531 125.742188 C 37.085938 125.742188 37.464844 125.570312 37.789062 125.21875 C 38.105469 124.859375 38.269531 124.367188 38.269531 123.742188 C 38.269531 123.148438 38.105469 122.679688 37.789062 122.34375 C 37.480469 122 37.085938 121.824219 36.601562 121.824219 C 36.128906 121.824219 35.726562 122 35.394531 122.34375 C 35.058594 122.679688 34.894531 123.125 34.894531 123.679688 Z M 34.894531 123.679688 "/>
<path style=" stroke:none;fill-rule:nonzero;fill:rgb(69.803923%,85.09804%,100%);fill-opacity:1;" d="M 171.175781 122.667969 L 195.175781 122.667969 L 195.175781 98.667969 L 171.175781 98.667969 Z M 171.175781 122.667969 "/>
<path style="fill:none;stroke-width:1;stroke-linecap:round;stroke-linejoin:round;stroke:rgb(0%,0%,0%);stroke-opacity:1;stroke-miterlimit:10;" d="M 140.381836 209.000977 L 158.381836 209.000977 L 158.381836 227.000977 L 140.381836 227.000977 Z M 140.381836 209.000977 " transform="matrix(1.333333,0,0,1.333333,-16,-180)"/>
<path style=" stroke:none;fill-rule:nonzero;fill:rgb(0%,0%,0%);fill-opacity:1;" d="M 185.878906 113.449219 L 185.878906 114.46875 L 180.191406 114.46875 C 180.191406 114.21875 180.234375 113.980469 180.316406 113.742188 C 180.46875 113.355469 180.703125 112.96875 181.027344 112.59375 C 181.34375 112.21875 181.800781 111.792969 182.402344 111.304688 C 183.328125 110.527344 183.953125 109.917969 184.277344 109.46875 C 184.609375 109.027344 184.777344 108.605469 184.777344 108.199219 C 184.777344 107.78125 184.621094 107.4375 184.316406 107.15625 C 184.027344 106.867188 183.640625 106.71875 183.171875 106.71875 C 182.65625 106.71875 182.246094 106.875 181.941406 107.179688 C 181.636719 107.484375 181.484375 107.90625 181.484375 108.449219 L 180.402344 108.324219 C 180.46875 107.523438 180.746094 106.90625 181.234375 106.492188 C 181.71875 106.0625 182.371094 105.84375 183.191406 105.84375 C 184.011719 105.84375 184.65625 106.074219 185.128906 106.53125 C 185.613281 106.992188 185.859375 107.554688 185.859375 108.21875 C 185.859375 108.570312 185.785156 108.90625 185.652344 109.242188 C 185.511719 109.574219 185.277344 109.929688 184.941406 110.304688 C 184.621094 110.667969 184.089844 111.167969 183.339844 111.804688 C 182.699219 112.335938 182.285156 112.695312 182.109375 112.886719 C 181.925781 113.085938 181.78125 113.273438 181.671875 113.449219 Z M 185.878906 113.449219 "/>
<path style=" stroke:none;fill-rule:nonzero;fill:rgb(69.803923%,85.09804%,100%);fill-opacity:1;" d="M 195.175781 122.667969 L 219.175781 122.667969 L 219.175781 98.667969 L 195.175781 98.667969 Z M 195.175781 122.667969 "/>
<path style="fill:none;stroke-width:1;stroke-linecap:round;stroke-linejoin:round;stroke:rgb(0%,0%,0%);stroke-opacity:1;stroke-miterlimit:10;" d="M 158.381836 209.000977 L 176.381836 209.000977 L 176.381836 227.000977 L 158.381836 227.000977 Z M 158.381836 209.000977 " transform="matrix(1.333333,0,0,1.333333,-16,-180)"/>
<path style=" stroke:none;fill-rule:nonzero;fill:rgb(0%,0%,0%);fill-opacity:1;" d="M 204.339844 112.199219 L 205.402344 112.054688 C 205.527344 112.652344 205.722656 113.085938 206.003906 113.34375 C 206.296875 113.609375 206.65625 113.742188 207.089844 113.742188 C 207.574219 113.742188 207.984375 113.574219 208.316406 113.242188 C 208.660156 112.898438 208.839844 112.464844 208.839844 111.949219 C 208.839844 111.464844 208.675781 111.070312 208.359375 110.761719 C 208.050781 110.445312 207.65625 110.28125 207.171875 110.28125 C 206.964844 110.28125 206.714844 110.324219 206.421875 110.40625 L 206.546875 109.46875 C 206.613281 109.484375 206.671875 109.492188 206.714844 109.492188 C 207.15625 109.492188 207.558594 109.375 207.921875 109.136719 C 208.28125 108.902344 208.464844 108.542969 208.464844 108.054688 C 208.464844 107.667969 208.328125 107.34375 208.066406 107.09375 C 207.800781 106.84375 207.464844 106.71875 207.046875 106.71875 C 206.640625 106.71875 206.300781 106.855469 206.027344 107.117188 C 205.761719 107.367188 205.589844 107.75 205.503906 108.261719 L 204.441406 108.074219 C 204.578125 107.367188 204.871094 106.820312 205.316406 106.429688 C 205.777344 106.042969 206.34375 105.84375 207.027344 105.84375 C 207.496094 105.84375 207.925781 105.949219 208.316406 106.15625 C 208.71875 106.355469 209.027344 106.625 209.234375 106.96875 C 209.441406 107.320312 209.546875 107.6875 209.546875 108.074219 C 209.546875 108.449219 209.441406 108.792969 209.234375 109.09375 C 209.035156 109.402344 208.746094 109.648438 208.359375 109.824219 C 208.871094 109.9375 209.265625 110.179688 209.546875 110.554688 C 209.824219 110.917969 209.964844 111.375 209.964844 111.929688 C 209.964844 112.679688 209.683594 113.320312 209.128906 113.84375 C 208.589844 114.359375 207.902344 114.617188 207.066406 114.617188 C 206.316406 114.617188 205.691406 114.398438 205.191406 113.949219 C 204.691406 113.507812 204.40625 112.921875 204.339844 112.199219 Z M 204.339844 112.199219 "/>
<path style=" stroke:none;fill-rule:nonzero;fill:rgb(69.803923%,85.09804%,100%);fill-opacity:1;" d="M 195.175781 98.667969 L 219.175781 98.667969 L 219.175781 74.667969 L 195.175781 74.667969 Z M 195.175781 98.667969 "/>
<path style="fill:none;stroke-width:1;stroke-linecap:round;stroke-linejoin:round;stroke:rgb(0%,0%,0%);stroke-opacity:1;stroke-miterlimit:10;" d="M 158.381836 191.000977 L 176.381836 191.000977 L 176.381836 209.000977 L 158.381836 209.000977 Z M 158.381836 191.000977 " transform="matrix(1.333333,0,0,1.333333,-16,-180)"/>
<path style=" stroke:none;fill-rule:nonzero;fill:rgb(0%,0%,0%);fill-opacity:1;" d="M 208.316406 90.46875 L 207.253906 90.46875 L 207.253906 83.742188 C 207.003906 83.992188 206.671875 84.242188 206.253906 84.492188 C 205.839844 84.730469 205.46875 84.902344 205.152344 85.011719 L 205.152344 83.992188 C 205.734375 83.730469 206.246094 83.402344 206.691406 83.011719 C 207.136719 82.609375 207.449219 82.21875 207.628906 81.84375 L 208.316406 81.84375 Z M 208.316406 90.46875 "/>
<path style=" stroke:none;fill-rule:nonzero;fill:rgb(69.803923%,85.09804%,100%);fill-opacity:1;" d="M 171.175781 98.667969 L 195.175781 98.667969 L 195.175781 74.667969 L 171.175781 74.667969 Z M 171.175781 98.667969 "/>
<path style="fill:none;stroke-width:1;stroke-linecap:round;stroke-linejoin:round;stroke:rgb(0%,0%,0%);stroke-opacity:1;stroke-miterlimit:10;" d="M 140.381836 191.000977 L 158.381836 191.000977 L 158.381836 209.000977 L 140.381836 209.000977 Z M 140.381836 191.000977 " transform="matrix(1.333333,0,0,1.333333,-16,-180)"/>
<path style=" stroke:none;fill-rule:nonzero;fill:rgb(0%,0%,0%);fill-opacity:1;" d="M 180.339844 86.242188 C 180.339844 85.230469 180.441406 84.40625 180.652344 83.78125 C 180.859375 83.15625 181.160156 82.679688 181.566406 82.34375 C 181.984375 82.011719 182.503906 81.84375 183.128906 81.84375 C 183.597656 81.84375 184.011719 81.945312 184.359375 82.136719 C 184.703125 82.320312 184.988281 82.585938 185.214844 82.929688 C 185.433594 83.277344 185.609375 83.699219 185.734375 84.199219 C 185.871094 84.699219 185.941406 85.382812 185.941406 86.242188 C 185.941406 87.242188 185.839844 88.054688 185.628906 88.679688 C 185.421875 89.292969 185.109375 89.773438 184.691406 90.117188 C 184.285156 90.449219 183.765625 90.617188 183.128906 90.617188 C 182.308594 90.617188 181.660156 90.320312 181.191406 89.71875 C 180.621094 89.011719 180.339844 87.855469 180.339844 86.242188 Z M 181.421875 86.242188 C 181.421875 87.648438 181.578125 88.585938 181.902344 89.054688 C 182.234375 89.511719 182.640625 89.742188 183.128906 89.742188 C 183.613281 89.742188 184.027344 89.511719 184.359375 89.054688 C 184.691406 88.585938 184.859375 87.648438 184.859375 86.242188 C 184.859375 84.824219 184.691406 83.886719 184.359375 83.429688 C 184.027344 82.960938 183.613281 82.71875 183.128906 82.71875 C 182.640625 82.71875 182.253906 82.921875 181.964844 83.324219 C 181.597656 83.855469 181.421875 84.824219 181.421875 86.242188 Z M 181.421875 86.242188 "/>
<path style=" stroke:none;fill-rule:nonzero;fill:rgb(69.803923%,85.09804%,100%);fill-opacity:1;" d="M 281.234375 122.667969 L 305.234375 122.667969 L 305.234375 98.667969 L 281.234375 98.667969 Z M 281.234375 122.667969 "/>
<path style="fill:none;stroke-width:1;stroke-linecap:round;stroke-linejoin:round;stroke:rgb(0%,0%,0%);stroke-opacity:1;stroke-miterlimit:10;" d="M 222.925781 209.000977 L 240.925781 209.000977 L 240.925781 227.000977 L 222.925781 227.000977 Z M 222.925781 209.000977 " transform="matrix(1.333333,0,0,1.333333,-16,-180)"/>
<path style=" stroke:none;fill-rule:nonzero;fill:rgb(0%,0%,0%);fill-opacity:1;" d="M 295.878906 107.992188 L 294.816406 108.074219 C 294.734375 107.65625 294.597656 107.355469 294.421875 107.15625 C 294.140625 106.867188 293.796875 106.71875 293.378906 106.71875 C 293.03125 106.71875 292.734375 106.8125 292.484375 106.992188 C 292.148438 107.242188 291.882812 107.59375 291.691406 108.054688 C 291.507812 108.511719 291.410156 109.171875 291.398438 110.03125 C 291.648438 109.65625 291.953125 109.382812 292.316406 109.199219 C 292.691406 109.007812 293.078125 108.90625 293.484375 108.90625 C 294.191406 108.90625 294.785156 109.167969 295.273438 109.679688 C 295.773438 110.195312 296.023438 110.859375 296.023438 111.679688 C 296.023438 112.21875 295.90625 112.730469 295.671875 113.199219 C 295.429688 113.65625 295.113281 114.011719 294.710938 114.261719 C 294.304688 114.496094 293.847656 114.617188 293.335938 114.617188 C 292.460938 114.617188 291.742188 114.296875 291.191406 113.65625 C 290.632812 113.007812 290.359375 111.9375 290.359375 110.449219 C 290.359375 108.796875 290.660156 107.589844 291.273438 106.824219 C 291.800781 106.171875 292.523438 105.84375 293.441406 105.84375 C 294.109375 105.84375 294.65625 106.042969 295.085938 106.429688 C 295.515625 106.804688 295.78125 107.324219 295.878906 107.992188 Z M 291.566406 111.679688 C 291.566406 112.054688 291.640625 112.40625 291.796875 112.742188 C 291.945312 113.0625 292.160156 113.3125 292.441406 113.492188 C 292.71875 113.65625 293.007812 113.742188 293.316406 113.742188 C 293.757812 113.742188 294.140625 113.570312 294.460938 113.21875 C 294.78125 112.859375 294.941406 112.367188 294.941406 111.742188 C 294.941406 111.148438 294.78125 110.679688 294.460938 110.34375 C 294.15625 110 293.757812 109.824219 293.273438 109.824219 C 292.800781 109.824219 292.398438 110 292.066406 110.34375 C 291.734375 110.679688 291.566406 111.125 291.566406 111.679688 Z M 291.566406 111.679688 "/>
<path style=" stroke:none;fill-rule:nonzero;fill:rgb(100%,100%,100%);fill-opacity:1;" d="M 305.234375 122.667969 L 329.234375 122.667969 L 329.234375 98.667969 L 305.234375 98.667969 Z M 305.234375 122.667969 "/>
<path style="fill:none;stroke-width:1;stroke-linecap:round;stroke-linejoin:round;stroke:rgb(0%,0%,0%);stroke-opacity:1;stroke-miterlimit:10;" d="M 240.925781 209.000977 L 258.925781 209.000977 L 258.925781 227.000977 L 240.925781 227.000977 Z M 240.925781 209.000977 " transform="matrix(1.333333,0,0,1.333333,-16,-180)"/>
<path style=" stroke:none;fill-rule:nonzero;fill:rgb(0%,0%,0%);fill-opacity:1;" d="M 316.023438 109.804688 C 315.578125 109.652344 315.253906 109.429688 315.046875 109.136719 C 314.835938 108.835938 314.734375 108.46875 314.734375 108.054688 C 314.734375 107.429688 314.953125 106.90625 315.398438 106.492188 C 315.859375 106.0625 316.453125 105.84375 317.191406 105.84375 C 317.941406 105.84375 318.546875 106.070312 319.003906 106.511719 C 319.460938 106.945312 319.691406 107.46875 319.691406 108.09375 C 319.691406 108.484375 319.585938 108.835938 319.378906 109.136719 C 319.171875 109.429688 318.847656 109.652344 318.421875 109.804688 C 318.945312 109.984375 319.347656 110.273438 319.628906 110.65625 C 319.90625 111.03125 320.046875 111.484375 320.046875 112.011719 C 320.046875 112.75 319.78125 113.367188 319.253906 113.867188 C 318.738281 114.367188 318.054688 114.617188 317.210938 114.617188 C 316.363281 114.617188 315.675781 114.367188 315.148438 113.867188 C 314.632812 113.367188 314.378906 112.742188 314.378906 111.992188 C 314.378906 111.4375 314.515625 110.96875 314.796875 110.59375 C 315.085938 110.210938 315.492188 109.945312 316.023438 109.804688 Z M 315.816406 108.03125 C 315.816406 108.4375 315.941406 108.773438 316.191406 109.03125 C 316.453125 109.28125 316.796875 109.40625 317.210938 109.40625 C 317.628906 109.40625 317.960938 109.28125 318.210938 109.03125 C 318.472656 108.773438 318.609375 108.449219 318.609375 108.074219 C 318.609375 107.699219 318.472656 107.382812 318.210938 107.117188 C 317.945312 106.855469 317.613281 106.71875 317.210938 106.71875 C 316.804688 106.71875 316.472656 106.855469 316.210938 107.117188 C 315.945312 107.367188 315.816406 107.671875 315.816406 108.03125 Z M 315.460938 111.992188 C 315.460938 112.296875 315.53125 112.589844 315.671875 112.867188 C 315.820312 113.148438 316.035156 113.359375 316.316406 113.511719 C 316.59375 113.667969 316.898438 113.742188 317.234375 113.742188 C 317.734375 113.742188 318.140625 113.585938 318.460938 113.261719 C 318.796875 112.945312 318.960938 112.53125 318.960938 112.03125 C 318.960938 111.523438 318.796875 111.09375 318.460938 110.761719 C 318.128906 110.429688 317.703125 110.261719 317.191406 110.261719 C 316.691406 110.261719 316.273438 110.429688 315.941406 110.761719 C 315.617188 111.09375 315.460938 111.507812 315.460938 111.992188 Z M 315.460938 111.992188 "/>
<path style=" stroke:none;fill-rule:nonzero;fill:rgb(100%,100%,100%);fill-opacity:1;" d="M 281.234375 98.667969 L 305.234375 98.667969 L 305.234375 74.667969 L 281.234375 74.667969 Z M 281.234375 98.667969 "/>
<path style="fill:none;stroke-width:1;stroke-linecap:round;stroke-linejoin:round;stroke:rgb(0%,0%,0%);stroke-opacity:1;stroke-miterlimit:10;" d="M 222.925781 191.000977 L 240.925781 191.000977 L 240.925781 209.000977 L 222.925781 209.000977 Z M 222.925781 191.000977 " transform="matrix(1.333333,0,0,1.333333,-16,-180)"/>
<path style=" stroke:none;fill-rule:nonzero;fill:rgb(0%,0%,0%);fill-opacity:1;" d="M 290.398438 86.242188 C 290.398438 85.230469 290.503906 84.40625 290.710938 83.78125 C 290.921875 83.15625 291.222656 82.679688 291.628906 82.34375 C 292.046875 82.011719 292.566406 81.84375 293.191406 81.84375 C 293.660156 81.84375 294.070312 81.945312 294.421875 82.136719 C 294.765625 82.320312 295.050781 82.585938 295.273438 82.929688 C 295.492188 83.277344 295.671875 83.699219 295.796875 84.199219 C 295.929688 84.699219 296.003906 85.382812 296.003906 86.242188 C 296.003906 87.242188 295.898438 88.054688 295.691406 88.679688 C 295.484375 89.292969 295.171875 89.773438 294.753906 90.117188 C 294.347656 90.449219 293.828125 90.617188 293.191406 90.617188 C 292.367188 90.617188 291.722656 90.320312 291.253906 89.71875 C 290.679688 89.011719 290.398438 87.855469 290.398438 86.242188 Z M 291.484375 86.242188 C 291.484375 87.648438 291.640625 88.585938 291.960938 89.054688 C 292.296875 89.511719 292.703125 89.742188 293.191406 89.742188 C 293.675781 89.742188 294.085938 89.511719 294.421875 89.054688 C 294.753906 88.585938 294.921875 87.648438 294.921875 86.242188 C 294.921875 84.824219 294.753906 83.886719 294.421875 83.429688 C 294.085938 82.960938 293.675781 82.71875 293.191406 82.71875 C 292.703125 82.71875 292.316406 82.921875 292.023438 83.324219 C 291.660156 83.855469 291.484375 84.824219 291.484375 86.242188 Z M 291.484375 86.242188 "/>
<path style=" stroke:none;fill-rule:nonzero;fill:rgb(69.803923%,85.09804%,100%);fill-opacity:1;" d="M 305.234375 98.667969 L 329.234375 98.667969 L 329.234375 74.667969 L 305.234375 74.667969 Z M 305.234375 98.667969 "/>
<path style="fill:none;stroke-width:1;stroke-linecap:round;stroke-linejoin:round;stroke:rgb(0%,0%,0%);stroke-opacity:1;stroke-miterlimit:10;" d="M 240.925781 191.000977 L 258.925781 191.000977 L 258.925781 209.000977 L 240.925781 209.000977 Z M 240.925781 191.000977 " transform="matrix(1.333333,0,0,1.333333,-16,-180)"/>
<path style=" stroke:none;fill-rule:nonzero;fill:rgb(0%,0%,0%);fill-opacity:1;" d="M 316.023438 85.804688 C 315.578125 85.652344 315.253906 85.429688 315.046875 85.136719 C 314.835938 84.835938 314.734375 84.46875 314.734375 84.054688 C 314.734375 83.429688 314.953125 82.90625 315.398438 82.492188 C 315.859375 82.0625 316.453125 81.84375 317.191406 81.84375 C 317.941406 81.84375 318.546875 82.070312 319.003906 82.511719 C 319.460938 82.945312 319.691406 83.46875 319.691406 84.09375 C 319.691406 84.484375 319.585938 84.835938 319.378906 85.136719 C 319.171875 85.429688 318.847656 85.652344 318.421875 85.804688 C 318.945312 85.984375 319.347656 86.273438 319.628906 86.65625 C 319.90625 87.03125 320.046875 87.484375 320.046875 88.011719 C 320.046875 88.75 319.78125 89.367188 319.253906 89.867188 C 318.738281 90.367188 318.054688 90.617188 317.210938 90.617188 C 316.363281 90.617188 315.675781 90.367188 315.148438 89.867188 C 314.632812 89.367188 314.378906 88.742188 314.378906 87.992188 C 314.378906 87.4375 314.515625 86.96875 314.796875 86.59375 C 315.085938 86.210938 315.492188 85.945312 316.023438 85.804688 Z M 315.816406 84.03125 C 315.816406 84.4375 315.941406 84.773438 316.191406 85.03125 C 316.453125 85.28125 316.796875 85.40625 317.210938 85.40625 C 317.628906 85.40625 317.960938 85.28125 318.210938 85.03125 C 318.472656 84.773438 318.609375 84.449219 318.609375 84.074219 C 318.609375 83.699219 318.472656 83.382812 318.210938 83.117188 C 317.945312 82.855469 317.613281 82.71875 317.210938 82.71875 C 316.804688 82.71875 316.472656 82.855469 316.210938 83.117188 C 315.945312 83.367188 315.816406 83.671875 315.816406 84.03125 Z M 315.460938 87.992188 C 315.460938 88.296875 315.53125 88.589844 315.671875 88.867188 C 315.820312 89.148438 316.035156 89.359375 316.316406 89.511719 C 316.59375 89.667969 316.898438 89.742188 317.234375 89.742188 C 317.734375 89.742188 318.140625 89.585938 318.460938 89.261719 C 318.796875 88.945312 318.960938 88.53125 318.960938 88.03125 C 318.960938 87.523438 318.796875 87.09375 318.460938 86.761719 C 318.128906 86.429688 317.703125 86.261719 317.191406 86.261719 C 316.691406 86.261719 316.273438 86.429688 315.941406 86.761719 C 315.617188 87.09375 315.460938 87.507812 315.460938 87.992188 Z M 315.460938 87.992188 "/>
<path style=" stroke:none;fill-rule:nonzero;fill:rgb(0%,0%,0%);fill-opacity:1;" d="M 140.882812 97.867188 L 141.425781 96.199219 C 142.660156 96.632812 143.5625 97.007812 144.132812 97.324219 C 143.976562 95.925781 143.90625 94.949219 143.90625 94.410156 L 145.59375 94.410156 C 145.5625 95.191406 145.472656 96.160156 145.320312 97.324219 C 146.125 96.925781 147.050781 96.550781 148.09375 96.199219 L 148.632812 97.867188 C 147.632812 98.191406 146.660156 98.402344 145.71875 98.511719 C 146.1875 98.929688 146.863281 99.667969 147.738281 100.722656 L 146.320312 101.722656 C 145.863281 101.113281 145.328125 100.273438 144.71875 99.199219 C 144.132812 100.316406 143.625 101.152344 143.195312 101.722656 L 141.800781 100.722656 C 142.71875 99.613281 143.367188 98.878906 143.757812 98.511719 C 142.742188 98.320312 141.785156 98.105469 140.882812 97.867188 Z M 140.882812 97.867188 "/>
<path style=" stroke:none;fill-rule:nonzero;fill:rgb(0%,0%,0%);fill-opacity:1;" d="M 253.804688 95.894531 L 242.453125 95.894531 L 242.453125 93.9375 L 253.804688 93.9375 Z M 253.804688 101.105469 L 242.453125 101.105469 L 242.453125 99.144531 L 253.804688 99.144531 Z M 253.804688 101.105469 "/>
<path style=" stroke:none;fill-rule:nonzero;fill:rgb(0%,0%,0%);fill-opacity:1;" d="M 295.988281 13.542969 L 295.988281 15.3125 L 294.800781 15.3125 C 295.089844 14.542969 295.382812 13.667969 295.632812 12.6875 L 297.945312 12.6875 L 297.945312 11.875 L 295.839844 11.875 C 295.945312 11.394531 296.050781 10.875 296.175781 10.332031 L 295.382812 10.167969 C 295.257812 10.75 295.152344 11.332031 295.027344 11.875 L 293.839844 11.875 L 293.839844 12.6875 L 294.839844 12.6875 C 294.570312 13.75 294.277344 14.667969 293.925781 15.375 L 294.113281 16.105469 L 295.988281 16.105469 L 295.988281 17.894531 C 295.277344 18.019531 294.550781 18.144531 293.757812 18.230469 L 293.863281 19.082031 C 294.589844 18.957031 295.300781 18.855469 295.988281 18.707031 L 295.988281 21.207031 L 296.777344 21.207031 L 296.777344 18.542969 L 297.925781 18.25 L 297.925781 17.4375 C 297.570312 17.519531 297.195312 17.625 296.777344 17.730469 L 296.777344 16.105469 L 297.882812 16.105469 L 297.882812 15.3125 L 296.777344 15.3125 L 296.777344 13.542969 Z M 299.527344 12.917969 L 299.527344 13.625 L 302.964844 13.625 L 302.964844 12.917969 L 299.527344 12.917969 C 300.132812 12.332031 300.714844 11.6875 301.277344 11 C 302.195312 12.167969 303.214844 13.167969 304.339844 13.980469 L 304.800781 13.3125 C 303.714844 12.542969 302.652344 11.519531 301.589844 10.230469 L 300.988281 10.230469 C 300.007812 11.417969 298.902344 12.480469 297.675781 13.375 L 298.152344 14.105469 C 298.613281 13.730469 299.070312 13.332031 299.527344 12.917969 Z M 300.363281 21.125 C 300.945312 21.125 301.257812 20.8125 301.257812 20.1875 L 301.257812 14.582031 L 298.425781 14.582031 L 298.425781 21.207031 L 299.175781 21.207031 L 299.175781 18.957031 L 300.527344 18.957031 L 300.527344 20.042969 C 300.527344 20.292969 300.382812 20.4375 300.132812 20.4375 L 299.589844 20.417969 L 299.777344 21.125 Z M 299.175781 18.292969 L 299.175781 17.144531 L 300.527344 17.144531 L 300.527344 18.292969 Z M 299.175781 16.480469 L 299.175781 15.292969 L 300.527344 15.292969 L 300.527344 16.480469 Z M 301.964844 14.917969 L 301.964844 19.230469 L 302.652344 19.230469 L 302.652344 14.917969 Z M 303.277344 21.144531 C 303.863281 21.144531 304.152344 20.792969 304.152344 20.105469 L 304.152344 14.375 L 303.402344 14.375 L 303.402344 19.917969 C 303.402344 20.25 303.277344 20.4375 303.007812 20.4375 C 302.714844 20.4375 302.402344 20.417969 302.089844 20.375 L 302.257812 21.144531 Z M 303.277344 21.144531 "/>
<path style=" stroke:none;fill-rule:nonzero;fill:rgb(0%,0%,0%);fill-opacity:1;" d="M 314.488281 14.375 L 311.675781 14.375 L 311.675781 10.1875 L 310.800781 10.1875 L 310.800781 14.375 L 307.988281 14.375 L 307.988281 11.105469 L 307.113281 11.105469 L 307.113281 15.207031 L 310.800781 15.207031 L 310.800781 19.625 L 307.402344 19.625 L 307.402344 16.332031 L 306.527344 16.332031 L 306.527344 21.125 L 307.402344 21.125 L 307.402344 20.4375 L 315.070312 20.4375 L 315.070312 21.125 L 315.945312 21.125 L 315.945312 16.332031 L 315.070312 16.332031 L 315.070312 19.625 L 311.675781 19.625 L 311.675781 15.207031 L 315.363281 15.207031 L 315.363281 11.105469 L 314.488281 11.105469 Z M 314.488281 14.375 "/>
<path style=" stroke:none;fill-rule:nonzero;fill:rgb(0%,0%,0%);fill-opacity:1;" d="M 179.125 15.082031 C 179.5 15.605469 179.917969 16.292969 180.394531 17.125 L 180.875 16.394531 C 180.292969 15.5625 179.707031 14.8125 179.125 14.144531 L 179.125 13.375 L 180.542969 13.375 L 180.542969 12.542969 L 179.125 12.542969 L 179.125 10.207031 L 178.3125 10.207031 L 178.3125 12.542969 L 176.644531 12.542969 L 176.644531 13.375 L 178.269531 13.375 C 177.917969 14.957031 177.292969 16.375 176.4375 17.625 L 176.8125 18.5 C 177.417969 17.519531 177.917969 16.417969 178.3125 15.1875 L 178.3125 21.207031 L 179.125 21.207031 Z M 180.855469 11.519531 L 180.855469 12.292969 L 183.167969 12.292969 C 182.417969 13.605469 181.792969 14.417969 181.3125 14.730469 C 181.269531 14.75 181.230469 14.769531 181.144531 14.792969 L 181.332031 15.5 C 182.269531 15.457031 183.167969 15.417969 184.019531 15.375 C 183.042969 16.480469 181.8125 17.269531 180.375 17.792969 L 180.832031 18.519531 C 183.167969 17.644531 184.917969 16.019531 186.125 13.644531 L 185.417969 13.269531 C 185.1875 13.75 184.894531 14.1875 184.582031 14.625 C 183.855469 14.6875 183.082031 14.730469 182.332031 14.769531 C 182.832031 14.292969 183.394531 13.457031 184.0625 12.292969 L 187.355469 12.292969 L 187.355469 11.519531 L 184.6875 11.519531 C 184.519531 11.019531 184.332031 10.5625 184.167969 10.1875 L 183.269531 10.332031 C 183.480469 10.6875 183.6875 11.082031 183.855469 11.519531 Z M 184.6875 18.769531 C 185.582031 19.605469 186.292969 20.394531 186.8125 21.144531 L 187.4375 20.519531 C 186.832031 19.75 186.082031 19 185.230469 18.230469 C 186 17.4375 186.6875 16.5 187.269531 15.4375 L 186.542969 15.042969 C 185.125 17.667969 183.019531 19.457031 180.207031 20.375 L 180.667969 21.125 C 182.207031 20.582031 183.542969 19.792969 184.6875 18.769531 Z M 184.6875 18.769531 "/>
<path style=" stroke:none;fill-rule:nonzero;fill:rgb(0%,0%,0%);fill-opacity:1;" d="M 190.542969 18.542969 C 191.6875 17.8125 192.769531 16.957031 193.792969 15.980469 L 193.792969 17.832031 C 193.792969 18.230469 193.625 18.417969 193.292969 18.417969 C 192.9375 18.417969 192.605469 18.394531 192.292969 18.394531 L 192.519531 19.1875 L 193.605469 19.1875 C 194.25 19.1875 194.582031 18.832031 194.582031 18.144531 L 194.582031 16.125 C 195.3125 16.6875 196.207031 17.457031 197.25 18.480469 L 197.75 17.730469 C 196.667969 16.792969 195.625 15.980469 194.582031 15.25 L 194.582031 13.417969 C 195.769531 12.769531 196.832031 12.125 197.792969 11.457031 L 197.792969 10.644531 L 190.355469 10.644531 L 190.355469 11.457031 L 196.5 11.457031 C 195.894531 11.855469 195 12.355469 193.792969 12.9375 L 193.792969 15 C 192.644531 16.082031 191.480469 16.980469 190.230469 17.6875 Z M 198 12.832031 L 198 19.75 L 190 19.75 L 190 12.832031 L 189.167969 12.832031 L 189.167969 21.207031 L 190 21.207031 L 190 20.542969 L 198 20.542969 L 198 21.230469 L 198.832031 21.230469 L 198.832031 12.832031 Z M 191.292969 13.207031 L 190.667969 13.605469 C 191.355469 14.269531 191.917969 14.855469 192.332031 15.417969 L 193 14.957031 C 192.605469 14.457031 192.042969 13.875 191.292969 13.207031 Z M 196.75 13.125 C 196.3125 13.855469 195.75 14.5 195.125 15.019531 L 195.75 15.457031 C 196.394531 14.894531 196.980469 14.230469 197.457031 13.457031 Z M 196.75 13.125 "/>
<path style=" stroke:none;fill-rule:nonzero;fill:rgb(0%,0%,0%);fill-opacity:1;" d="M 207.894531 12.855469 L 209.667969 12.855469 C 209.625 14.480469 209.375 15.894531 208.894531 17.105469 C 208.417969 16.105469 208.042969 14.894531 207.75 13.480469 Z M 208.5 17.980469 C 207.957031 19 207.230469 19.8125 206.292969 20.457031 L 206.730469 21.1875 C 207.625 20.542969 208.375 19.730469 208.957031 18.769531 C 209.542969 19.792969 210.269531 20.605469 211.105469 21.207031 L 211.582031 20.5 C 210.707031 19.894531 209.980469 19.082031 209.355469 18 C 210.042969 16.582031 210.394531 14.855469 210.457031 12.855469 L 211.25 12.855469 L 211.25 12.042969 L 208.082031 12.042969 C 208.167969 11.5 208.269531 10.9375 208.332031 10.3125 L 207.5 10.167969 C 207.25 12.457031 206.769531 14.269531 206.0625 15.605469 L 206.605469 16.269531 C 206.855469 15.832031 207.105469 15.355469 207.3125 14.792969 C 207.644531 16 208.042969 17.042969 208.5 17.980469 Z M 202.8125 15.769531 C 202.730469 16.019531 202.644531 16.269531 202.542969 16.542969 L 200.769531 16.542969 L 200.769531 17.292969 L 202.1875 17.292969 C 201.957031 17.769531 201.6875 18.25 201.375 18.792969 C 201.957031 19 202.5 19.230469 203.042969 19.457031 C 202.332031 19.855469 201.480469 20.1875 200.5 20.4375 L 200.917969 21.167969 C 202.105469 20.832031 203.105469 20.375 203.894531 19.832031 C 204.605469 20.144531 205.230469 20.457031 205.75 20.769531 L 206.207031 20.105469 C 205.6875 19.8125 205.144531 19.5625 204.5625 19.292969 C 205.1875 18.707031 205.625 18.042969 205.894531 17.25 L 205.894531 16.542969 L 203.375 16.542969 C 203.457031 16.3125 203.542969 16.105469 203.625 15.875 Z M 203.769531 18.957031 C 203.332031 18.769531 202.875 18.605469 202.394531 18.4375 C 202.644531 18.082031 202.855469 17.6875 203.042969 17.292969 L 205.105469 17.292969 C 204.832031 17.917969 204.375 18.480469 203.769531 18.957031 Z M 201.730469 10.417969 L 201.042969 10.644531 C 201.332031 11.105469 201.605469 11.625 201.855469 12.207031 L 202.480469 11.917969 C 202.25 11.394531 202.019531 10.894531 201.730469 10.417969 Z M 205.375 10.394531 C 205.167969 10.894531 204.855469 11.394531 204.457031 11.917969 L 205.082031 12.230469 C 205.457031 11.730469 205.75 11.207031 206 10.667969 Z M 200.8125 12.5 L 200.8125 13.25 L 202.5 13.25 C 202.144531 13.917969 201.5 14.519531 200.582031 15.0625 L 201 15.75 C 202.019531 15.0625 202.75 14.25 203.144531 13.292969 L 203.144531 15.5625 L 203.957031 15.5625 L 203.957031 14.019531 C 204.375 14.292969 204.894531 14.6875 205.5 15.167969 L 205.9375 14.5 C 205.269531 14.082031 204.605469 13.707031 203.957031 13.394531 L 203.957031 13.25 L 206.125 13.25 L 206.125 12.5 L 203.957031 12.5 L 203.957031 10.207031 L 203.144531 10.207031 L 203.144531 12.5 Z M 200.8125 12.5 "/>
<path style=" stroke:none;fill-rule:nonzero;fill:rgb(0%,0%,0%);fill-opacity:1;" d="M 51.3125 13.542969 L 51.3125 15.3125 L 50.125 15.3125 C 50.417969 14.542969 50.710938 13.667969 50.960938 12.6875 L 53.273438 12.6875 L 53.273438 11.875 L 51.167969 11.875 C 51.273438 11.394531 51.375 10.875 51.5 10.332031 L 50.710938 10.167969 C 50.585938 10.75 50.480469 11.332031 50.355469 11.875 L 49.167969 11.875 L 49.167969 12.6875 L 50.167969 12.6875 C 49.898438 13.75 49.605469 14.667969 49.25 15.375 L 49.4375 16.105469 L 51.3125 16.105469 L 51.3125 17.894531 C 50.605469 18.019531 49.875 18.144531 49.085938 18.230469 L 49.1875 19.082031 C 49.917969 18.957031 50.625 18.855469 51.3125 18.707031 L 51.3125 21.207031 L 52.105469 21.207031 L 52.105469 18.542969 L 53.25 18.25 L 53.25 17.4375 C 52.898438 17.519531 52.523438 17.625 52.105469 17.730469 L 52.105469 16.105469 L 53.210938 16.105469 L 53.210938 15.3125 L 52.105469 15.3125 L 52.105469 13.542969 Z M 54.855469 12.917969 L 54.855469 13.625 L 58.292969 13.625 L 58.292969 12.917969 L 54.855469 12.917969 C 55.460938 12.332031 56.042969 11.6875 56.605469 11 C 57.523438 12.167969 58.542969 13.167969 59.667969 13.980469 L 60.125 13.3125 C 59.042969 12.542969 57.980469 11.519531 56.917969 10.230469 L 56.3125 10.230469 C 55.335938 11.417969 54.230469 12.480469 53 13.375 L 53.480469 14.105469 C 53.9375 13.730469 54.398438 13.332031 54.855469 12.917969 Z M 55.6875 21.125 C 56.273438 21.125 56.585938 20.8125 56.585938 20.1875 L 56.585938 14.582031 L 53.75 14.582031 L 53.75 21.207031 L 54.5 21.207031 L 54.5 18.957031 L 55.855469 18.957031 L 55.855469 20.042969 C 55.855469 20.292969 55.710938 20.4375 55.460938 20.4375 L 54.917969 20.417969 L 55.105469 21.125 Z M 54.5 18.292969 L 54.5 17.144531 L 55.855469 17.144531 L 55.855469 18.292969 Z M 54.5 16.480469 L 54.5 15.292969 L 55.855469 15.292969 L 55.855469 16.480469 Z M 57.292969 14.917969 L 57.292969 19.230469 L 57.980469 19.230469 L 57.980469 14.917969 Z M 58.605469 21.144531 C 59.1875 21.144531 59.480469 20.792969 59.480469 20.105469 L 59.480469 14.375 L 58.730469 14.375 L 58.730469 19.917969 C 58.730469 20.25 58.605469 20.4375 58.335938 20.4375 C 58.042969 20.4375 57.730469 20.417969 57.417969 20.375 L 57.585938 21.144531 Z M 58.605469 21.144531 "/>
<path style=" stroke:none;fill-rule:nonzero;fill:rgb(0%,0%,0%);fill-opacity:1;" d="M 66.042969 12.980469 C 65.273438 16.167969 63.605469 18.625 61.023438 20.292969 L 61.542969 21.042969 C 64.0625 19.394531 65.730469 17.042969 66.523438 13.980469 C 66.585938 14.125 66.625 14.292969 66.710938 14.5 C 67.9375 17.667969 69.523438 19.855469 71.480469 21.019531 L 72.023438 20.332031 C 70.105469 19.144531 68.605469 17.105469 67.480469 14.25 C 66.75 12.292969 65.835938 10.9375 64.773438 10.1875 L 64.0625 10.644531 C 64.8125 11.207031 65.480469 11.980469 66.042969 12.980469 Z M 66.042969 12.980469 "/>
</g>
</svg>
