<?xml version="1.0" standalone="no"?>
<!DOCTYPE svg PUBLIC "-//W3C//DTD SVG 20010904//EN"
 "http://www.w3.org/TR/2001/REC-SVG-20010904/DTD/svg10.dtd">
<svg version="1.0" xmlns="http://www.w3.org/2000/svg"
 width="1200.000000pt" height="1200.000000pt" viewBox="0 0 1200.000000 1200.000000"
 preserveAspectRatio="xMidYMid meet">
<metadata>
Created by potrace 1.14, written by Peter Selinger 2001-2017
</metadata>
<g transform="translate(0.000000,1200.000000) scale(0.100000,-0.100000)"
fill="#000000" stroke="none">
<path d="M2799 9996 c-2 -2 -35 -6 -74 -10 -38 -3 -81 -8 -95 -11 -13 -2 -40
-7 -60 -10 -78 -12 -135 -26 -240 -62 -119 -40 -214 -90 -360 -190 -47 -31
-181 -178 -225 -243 -61 -93 -113 -200 -151 -312 -18 -54 -31 -98 -28 -98 3 0
1 -8 -5 -17 -5 -10 -11 -37 -15 -61 -3 -24 -7 -46 -10 -50 -2 -4 -7 -34 -11
-67 -4 -33 -11 -89 -15 -125 -8 -63 -4 -4900 4 -4970 14 -120 19 -155 37 -240
26 -125 27 -127 40 -169 84 -262 246 -485 452 -619 74 -48 245 -132 269 -132
8 0 18 -4 23 -9 10 -8 128 -39 230 -60 46 -9 69 -13 175 -29 63 -10 6401 -11
6495 -1 689 71 1099 415 1219 1024 24 122 26 134 34 215 10 103 9 4938 -1
5022 -27 223 -80 414 -157 568 -67 133 -191 288 -288 360 -19 14 -39 30 -46
37 -18 16 -134 86 -176 105 -139 65 -264 102 -450 135 -87 15 -353 17 -3331
20 -1780 2 -3238 1 -3240 -1z"/>
</g>
</svg>
